<svg width="80" height="80" viewBox="0 0 80 80" fill="none" xmlns="http://www.w3.org/2000/svg">
<path d="M35 70H12.7375C11.2425 70 10 68.725 10 67.115V12.885C10 11.275 11.2425 10 12.7375 10H57.2625C58.7575 10 60 11.275 60 12.885V27.14C60 27.803 60.2634 28.4389 60.7322 28.9078C61.2011 29.3766 61.837 29.64 62.5 29.64C63.163 29.64 63.7989 29.3766 64.2678 28.9078C64.7366 28.4389 65 27.803 65 27.14V12.885C65 8.545 61.55 5 57.2625 5H12.7375C8.45 5 5 8.545 5 12.885V67.115C5 71.455 8.45 75 12.7375 75H35C35.663 75 36.2989 74.7366 36.7678 74.2678C37.2366 73.7989 37.5 73.163 37.5 72.5C37.5 71.837 37.2366 71.2011 36.7678 70.7322C36.2989 70.2634 35.663 70 35 70Z" fill="#377DFF"/>
<path d="M57.5 35C52.1957 35 47.1086 37.1071 43.3579 40.8579C39.6071 44.6086 37.5 49.6957 37.5 55C37.5 60.3043 39.6071 65.3914 43.3579 69.1421C47.1086 72.8929 52.1957 75 57.5 75C62.8043 75 67.8914 72.8929 71.6421 69.1421C75.3929 65.3914 77.5 60.3043 77.5 55C77.5 49.6957 75.3929 44.6086 71.6421 40.8579C67.8914 37.1071 62.8043 35 57.5 35ZM57.5 70C55.5302 70 53.5796 69.612 51.7597 68.8582C49.9399 68.1044 48.2863 66.9995 46.8934 65.6066C45.5005 64.2137 44.3956 62.5601 43.6418 60.7403C42.888 58.9204 42.5 56.9698 42.5 55C42.5 53.0302 42.888 51.0796 43.6418 49.2597C44.3956 47.4399 45.5005 45.7863 46.8934 44.3934C48.2863 43.0005 49.9399 41.8956 51.7597 41.1418C53.5796 40.388 55.5302 40 57.5 40C61.4782 40 65.2936 41.5804 68.1066 44.3934C70.9197 47.2064 72.5 51.0218 72.5 55C72.5 58.9782 70.9197 62.7936 68.1066 65.6066C65.2936 68.4197 61.4782 70 57.5 70Z" fill="#377DFF"/>
<path d="M64.9575 53.75H58.75V48.75C58.75 48.087 58.4866 47.4511 58.0178 46.9822C57.5489 46.5134 56.913 46.25 56.25 46.25C55.587 46.25 54.9511 46.5134 54.4822 46.9822C54.0134 47.4511 53.75 48.087 53.75 48.75V56.25C53.75 56.913 54.0134 57.5489 54.4822 58.0178C54.9511 58.4866 55.587 58.75 56.25 58.75H64.9575C65.6205 58.75 66.2564 58.4866 66.7253 58.0178C67.1941 57.5489 67.4575 56.913 67.4575 56.25C67.4575 55.587 67.1941 54.9511 66.7253 54.4822C66.2564 54.0134 65.6205 53.75 64.9575 53.75ZM50 25C50 24.337 49.7366 23.7011 49.2678 23.2322C48.7989 22.7634 48.163 22.5 47.5 22.5H22.5C21.837 22.5 21.2011 22.7634 20.7322 23.2322C20.2634 23.7011 20 24.337 20 25C20 25.663 20.2634 26.2989 20.7322 26.7678C21.2011 27.2366 21.837 27.5 22.5 27.5H47.5C48.163 27.5 48.7989 27.2366 49.2678 26.7678C49.7366 26.2989 50 25.663 50 25ZM22.5 42.5C21.837 42.5 21.2011 42.7634 20.7322 43.2322C20.2634 43.7011 20 44.337 20 45C20 45.663 20.2634 46.2989 20.7322 46.7678C21.2011 47.2366 21.837 47.5 22.5 47.5H28.7725C29.4355 47.5 30.0714 47.2366 30.5403 46.7678C31.0091 46.2989 31.2725 45.663 31.2725 45C31.2725 44.337 31.0091 43.7011 30.5403 43.2322C30.0714 42.7634 29.4355 42.5 28.7725 42.5H22.5Z" fill="#377DFF" fill-opacity="0.4"/>
</svg>