<svg width="14" height="23" viewBox="0 0 14 23" fill="none" xmlns="http://www.w3.org/2000/svg">
<path d="M11.163 16.9285C11.1731 16.9225 11.1793 16.9114 11.1792 16.8994L11.166 12.2925L12.48 11.5859L12.5343 17.6903L7.35314 20.7022L7.34912 19.2241L11.163 16.9285Z" fill="#23262F" stroke="#23262F" stroke-width="0.0822633" stroke-miterlimit="10" stroke-linecap="round" stroke-linejoin="round"/>
<path d="M12.544 11.5263C12.5438 11.5139 12.5371 11.5026 12.5265 11.4968L8.50537 9.32117L10.0045 8.45312L13.8196 10.8965L13.8405 18.2736L12.5987 17.6843L12.544 11.5263Z" fill="#23262F" stroke="#23262F" stroke-width="0.0822633" stroke-miterlimit="10" stroke-linecap="round" stroke-linejoin="round"/>
<path d="M7.30124 2.42763L7.29492 0.835938L13.8034 4.62551L13.808 6.14272L7.30124 2.42763Z" fill="#23262F" stroke="#23262F" stroke-width="0.0822633" stroke-miterlimit="10" stroke-linecap="round" stroke-linejoin="round"/>
<path d="M1.9262 5.46473C1.91584 5.47066 1.9094 5.48184 1.90936 5.49398L1.88889 11.5456L0.767705 12.3926L0.745605 4.7019L7.22851 0.835938L7.23484 2.42732L1.9262 5.46473Z" fill="#23262F" stroke="#23262F" stroke-width="0.0822633" stroke-miterlimit="10" stroke-linecap="round" stroke-linejoin="round"/>
<path d="M7.33665 20.7889L12.5689 17.7473L13.8044 18.3337L7.28743 22.2758L0.818385 18.5223L5.97817 15.4277C5.98838 15.4215 5.99459 15.4102 5.99442 15.3982C5.99427 15.3861 5.98776 15.375 5.97739 15.3691L4.60885 14.5993L0.795898 12.4539L1.92406 11.6016L8.46524 15.4236L4.58666 17.6611L4.58649 17.6612L3.27007 18.4102C3.25965 18.4161 3.25319 18.4273 3.25316 18.4395C3.25313 18.4517 3.25955 18.463 3.26993 18.4689L7.30427 20.7889C7.31434 20.7947 7.32665 20.7947 7.33665 20.7889Z" fill="#23262F" stroke="#23262F" stroke-width="0.0822633" stroke-miterlimit="10" stroke-linecap="round" stroke-linejoin="round"/>
<path d="M7.26903 2.48438L13.7746 6.19874L9.99165 8.38835L8.42325 9.29652C8.41279 9.30258 8.4064 9.31402 8.40654 9.32627C8.40673 9.33859 8.41345 9.34982 8.42404 9.35555L12.4431 11.5301L11.1348 12.2336L5.97069 9.25183L11.1333 6.1572C11.1435 6.15112 11.1497 6.13999 11.1497 6.12797C11.1496 6.11596 11.1432 6.10489 11.133 6.09893L9.88951 5.37312L7.28955 3.85539C7.27943 3.84948 7.26701 3.84948 7.2569 3.85541L3.40005 6.11316L2.01709 5.48935L7.26903 2.48438Z" fill="#23262F" stroke="#23262F" stroke-width="0.0822633" stroke-miterlimit="10" stroke-linecap="round" stroke-linejoin="round"/>
<path d="M7.28286 19.2301L7.28689 20.7075L3.35303 18.4452L4.60236 17.7344L7.28286 19.2301Z" fill="#23262F" stroke="#23262F" stroke-width="0.0822633" stroke-miterlimit="10" stroke-linecap="round" stroke-linejoin="round"/>
<path d="M4.59136 14.6719L5.89306 15.4042L0.783414 18.4688L0.778809 16.8763L4.59136 14.6719Z" fill="#23262F" stroke="#23262F" stroke-width="0.0822633" stroke-miterlimit="10" stroke-linecap="round" stroke-linejoin="round"/>
<path d="M9.87139 5.44531L11.0493 6.13287L5.93652 9.19763L5.95144 7.68478L9.87139 5.44531Z" fill="#23262F" stroke="#23262F" stroke-width="0.0822633" stroke-miterlimit="10" stroke-linecap="round" stroke-linejoin="round"/>
<path d="M3.38007 10.9074C3.38011 10.9196 3.38662 10.9308 3.39709 10.9368L8.49311 13.8109L8.49772 15.3602L1.95361 11.5365L1.97391 5.53906L3.36685 6.16737L3.38007 10.9074Z" fill="#23262F" stroke="#23262F" stroke-width="0.0822633" stroke-miterlimit="10" stroke-linecap="round" stroke-linejoin="round"/>
</svg>
