<svg width="14" height="24" viewBox="0 0 14 24" fill="none" xmlns="http://www.w3.org/2000/svg">
<path fill-rule="evenodd" clip-rule="evenodd" d="M13.3777 0.767362C13.8256 0.81948 14.1094 1.27529 13.9597 1.70209L11.7696 7.94735C11.5741 8.50494 10.8228 8.58827 10.5106 8.08697L10.0429 7.33582L1.59077 12.6359L0.721494 11.2398C-0.666921 9.0101 0.00879033 6.07305 2.23071 4.67975L6.6597 1.90245L6.14711 1.07935C5.83499 0.578046 6.23897 -0.0630883 6.8241 0.0050009L13.3777 0.767362ZM4.51553 15.2481C1.46192 17.0172 0.415681 20.9356 2.17869 24L10.7788 19.0172C13.0479 17.7026 13.8253 14.791 12.5153 12.514L11.6951 11.0883L4.51553 15.2481Z" fill="#07C166"/>
</svg>
