<svg width="48" height="48" viewBox="0 0 48 48" fill="none" xmlns="http://www.w3.org/2000/svg">
<path d="M31.1986 9.59863H16.7986C12.8386 9.59863 9.59863 12.8386 9.59863 16.7986V31.1986C9.59863 35.1586 12.8386 38.3986 16.7986 38.3986H31.1986C35.1586 38.3986 38.3986 35.1586 38.3986 31.1986V16.7986C38.3986 12.8386 35.1586 9.59863 31.1986 9.59863Z" fill="#377DFF"/>
<path d="M18.6004 31.5594C18.6004 32.1594 18.1204 32.6394 17.5204 32.6394C16.9204 32.6394 16.4404 32.1594 16.4404 31.5594V22.1994C16.4404 21.5994 16.9204 21.1194 17.5204 21.1194C18.1204 21.1194 18.6004 21.5994 18.6004 22.1994V31.5594ZM25.0804 31.5594C25.0804 32.1594 24.6004 32.6394 24.0004 32.6394C23.4004 32.6394 22.9204 32.1594 22.9204 31.5594V16.4394C22.9204 15.8394 23.4004 15.3594 24.0004 15.3594C24.6004 15.3594 25.0804 15.8394 25.0804 16.4394V31.5594ZM31.5604 31.5594C31.5604 32.1594 31.0804 32.6394 30.4804 32.6394C29.8804 32.6394 29.4004 32.1594 29.4004 31.5594V27.9594C29.4004 27.3594 29.8804 26.8794 30.4804 26.8794C31.0804 26.8794 31.5604 27.3594 31.5604 27.9594V31.5594Z" fill="white"/>
</svg>
