<svg width="20" height="20" viewBox="0 0 20 20" fill="none" xmlns="http://www.w3.org/2000/svg">
<path d="M10.0059 18.7598C5.17187 18.7598 1.25391 14.8418 1.25391 10.0078C1.25391 5.17383 5.17187 1.25391 10.0059 1.25391C14.8398 1.25391 18.7578 5.17187 18.7578 10.0059C18.7578 14.8398 14.8398 18.7598 10.0059 18.7598ZM14.9395 7.29297C14.7676 7.12305 14.4922 7.12305 14.3203 7.29297L9.05859 12.5547L6.27344 9.76953C6.10156 9.59766 5.82617 9.59766 5.6543 9.76953C5.48438 9.94141 5.48438 10.2168 5.6543 10.3887L8.75 13.4824C8.92187 13.6523 9.19727 13.6523 9.36914 13.4824L14.9395 7.91211C15.1094 7.74023 15.1094 7.46289 14.9395 7.29297Z" fill="white"/>
</svg>
