<svg width="14" height="15" viewBox="0 0 14 15" fill="none" xmlns="http://www.w3.org/2000/svg">
<path d="M6.75685 14.1114C3.1223 14.1114 0.175781 11.1648 0.175781 7.53029C0.175781 3.89574 3.1223 0.949219 6.75685 0.949219C10.3914 0.949219 13.3379 3.89574 13.3379 7.53029C13.3379 11.1648 10.3914 14.1114 6.75685 14.1114ZM6.75685 12.9148C9.73029 12.9148 12.1414 10.5037 12.1414 7.53029C12.1414 4.55684 9.73029 2.14578 6.75685 2.14578C3.7831 2.14578 1.37234 4.55684 1.37234 7.53029C1.37234 10.5037 3.7831 12.9148 6.75685 12.9148ZM6.75685 5.0214C6.59813 5.0214 6.44592 4.95835 6.3337 4.84613C6.22147 4.7339 6.15842 4.58169 6.15842 4.42297C6.15842 4.26426 6.22147 4.11205 6.3337 3.99982C6.44592 3.88759 6.59813 3.82455 6.75685 3.82455C6.91556 3.82455 7.06777 3.88759 7.18 3.99982C7.29223 4.11205 7.35528 4.26426 7.35528 4.42297C7.35528 4.58169 7.29223 4.7339 7.18 4.84613C7.06777 4.95835 6.91556 5.0214 6.75685 5.0214ZM6.76493 11.1708C6.61399 11.1708 6.46864 11.1137 6.35803 11.011C6.24741 10.9083 6.17969 10.7676 6.16844 10.6171L6.16665 10.5722V6.38428C6.16603 6.22906 6.22577 6.07968 6.33324 5.96769C6.44072 5.85569 6.58751 5.78985 6.74262 5.78406C6.89773 5.77828 7.04902 5.833 7.16454 5.93668C7.28006 6.04036 7.35076 6.18488 7.36171 6.33971L7.3632 6.38458V10.5725C7.3632 10.7312 7.30017 10.8834 7.18797 10.9956C7.07577 11.1078 6.9236 11.1708 6.76493 11.1708Z" fill="#377DFF"/>
</svg>
