<svg width="32" height="32" viewBox="0 0 32 32" fill="none" xmlns="http://www.w3.org/2000/svg">
<path d="M27.3277 4.67227C24.437 1.78151 20.437 0 16 0H7.2605V7.26051H0V16V30.2185V32H16C20.4034 32 24.437 30.2185 27.3277 27.3277C30.2185 24.437 32 20.437 32 16C32 11.5966 30.2185 7.59664 27.3277 4.67227ZM10.8235 10.8235H16.0336C17.4454 10.8235 18.7563 11.4286 19.6975 12.3697C20.6387 13.3109 21.2101 14.5882 21.2101 16.0336C21.2101 17.479 20.6387 18.7563 19.6975 19.6975C18.7563 20.6387 17.479 21.2101 16.0336 21.2437H10.8235V10.8235ZM24.8067 24.8067C22.5546 27.0588 19.4958 28.437 16.0672 28.4706H3.52941V16V10.8235H7.2605V24.7731H15.8319H16.0336C18.4538 24.7731 20.605 23.7983 22.1849 22.2185C23.7647 20.6387 24.7395 18.4538 24.7395 16.0672C24.7395 13.6471 23.7647 11.4958 22.1849 9.91597C20.605 8.33613 18.4202 7.36134 16.0336 7.36134H10.8235V3.63025H16C19.4286 3.63025 22.5546 5.0084 24.8067 7.29411C27.0588 9.54621 28.4706 12.6723 28.4706 16.1008C28.4706 19.4286 27.0588 22.5546 24.8067 24.8067Z" fill="white" fill-opacity="0.8"/>
</svg>
