<svg width="40" height="40" viewBox="0 0 40 40" fill="none" xmlns="http://www.w3.org/2000/svg">
<path d="M35.7474 15.0847C35.2904 14.6277 34.5483 14.6277 34.0913 15.0847L19.1748 29.9973C18.7178 30.4543 18.7178 31.1964 19.1748 31.6534C19.6318 32.1104 20.3739 32.1104 20.8309 31.6534L35.7435 16.7408C36.2044 16.2838 36.2044 15.5417 35.7474 15.0847Z" fill="white"/>
<path d="M20.8685 30.0012L5.94805 15.0808C5.49106 14.6238 4.74895 14.6238 4.29196 15.0808C3.83497 15.5378 3.83497 16.2799 4.29196 16.7369L19.2124 31.6573C19.6694 32.1143 20.4115 32.1143 20.8685 31.6573C21.3255 31.2003 21.3255 30.4582 20.8685 30.0012Z" fill="white"/>
</svg>
