<svg width="40" height="40" viewBox="0 0 40 40" fill="none" xmlns="http://www.w3.org/2000/svg">
<path d="M35.7474 24.9153C35.2904 25.3723 34.5483 25.3723 34.0913 24.9153L19.1748 10.0027C18.7178 9.54572 18.7178 8.80361 19.1748 8.34662C19.6318 7.88964 20.3739 7.88964 20.8309 8.34662L35.7435 23.2592C36.2044 23.7162 36.2044 24.4583 35.7474 24.9153Z" fill="white"/>
<path d="M20.8685 9.9988L5.94805 24.9192C5.49106 25.3762 4.74895 25.3762 4.29196 24.9192C3.83497 24.4622 3.83497 23.7201 4.29196 23.2631L19.2124 8.34272C19.6694 7.88573 20.4115 7.88573 20.8685 8.34272C21.3255 8.79971 21.3255 9.54182 20.8685 9.9988Z" fill="white"/>
</svg>
