<svg width="34" height="18" viewBox="0 0 34 18" fill="none" xmlns="http://www.w3.org/2000/svg">
<path d="M32.7474 16.9153C32.2904 17.3723 31.5483 17.3723 31.0913 16.9153L16.1748 2.00271C15.7178 1.54572 15.7178 0.80361 16.1748 0.346622C16.6318 -0.110365 17.3739 -0.110365 17.8309 0.346622L32.7435 15.2592C33.2044 15.7162 33.2044 16.4583 32.7474 16.9153Z" fill="white"/>
<path d="M17.8685 1.99881L2.94805 16.9192C2.49106 17.3762 1.74895 17.3762 1.29196 16.9192C0.834972 16.4622 0.834972 15.7201 1.29196 15.2631L16.2124 0.342718C16.6694 -0.114267 17.4115 -0.114267 17.8685 0.342718C18.3255 0.799706 18.3255 1.54182 17.8685 1.99881Z" fill="white"/>
</svg>
