<svg width="14" height="14" viewBox="0 0 14 14" fill="none" xmlns="http://www.w3.org/2000/svg">
<path d="M7 13.8473C7.77232 13.8473 8.40421 13.2154 8.40421 12.4431H5.59579C5.59579 13.2154 6.22768 13.8473 7 13.8473ZM11.2126 9.63469V6.12415C11.2126 3.96869 10.0682 2.16427 8.05316 1.68684V1.20941C8.05316 0.626661 7.58275 0.15625 7 0.15625C6.41725 0.15625 5.94684 0.626661 5.94684 1.20941V1.68684C3.93882 2.16427 2.78736 3.96167 2.78736 6.12415V9.63469L1.38315 11.0389V11.741H12.6169V11.0389L11.2126 9.63469ZM9.80843 10.3368H4.19158V6.12415C4.19158 4.38293 5.25176 2.96468 7 2.96468C8.74825 2.96468 9.80843 4.38293 9.80843 6.12415V10.3368ZM3.89669 1.26558L2.89268 0.261566C1.20762 1.54642 0.0982949 3.52636 0 5.7731H1.40421C1.50953 3.91252 2.46439 2.28363 3.89669 1.26558V1.26558ZM12.5958 5.7731H14C13.8947 3.52636 12.7854 1.54642 11.1073 0.261566L10.1103 1.26558C11.5286 2.28363 12.4905 3.91252 12.5958 5.7731Z" fill="#FFAB00" fill-opacity="0.5"/>
</svg>
