<svg width="349" height="313" viewBox="0 0 349 313" fill="none" xmlns="http://www.w3.org/2000/svg">
<path d="M89.3674 186.257C89.3674 186.257 119.275 220.35 126.036 222.244C126.036 139.102 141.386 112.912 141.386 112.912L152.837 98.7393L126.95 89.269C126.95 89.269 82.5454 150.858 89.3674 186.257Z" fill="white" stroke="#1A1A1A" stroke-width="1.30089" stroke-miterlimit="10" stroke-linecap="round" stroke-linejoin="round"/>
<path d="M361.466 108.01C354.03 108.01 318.102 112.728 299.13 129.576H161.398C150.489 129.576 141.714 138.951 141.714 150.553L141.153 357.428C134.144 361.493 127.075 364.311 120.127 366.147L120.688 128.2C120.688 116.138 129.83 108.01 141.043 108.01H361.466Z" fill="white" stroke="#555555" stroke-width="1.24702" stroke-miterlimit="10" stroke-linecap="round" stroke-linejoin="round"/>
<path d="M279.295 162.222C279.539 161.046 279.783 159.871 280.148 158.76C283.957 145.968 292.083 136.042 298.588 129.631L161.127 129.958C150.224 129.958 141.453 139.297 141.453 150.857V168.949H278.564C278.564 166.663 278.869 164.377 279.295 162.222Z" fill="#FCF7EC" stroke="#555555" stroke-width="1.24702" stroke-miterlimit="10" stroke-linecap="round" stroke-linejoin="round"/>
<path d="M290.931 213.23C284.414 200.233 277.774 184.297 278.444 168.948H141.333V357.504C144.988 355.414 148.581 352.998 152.114 350.255C156.195 347.054 160.276 343.397 164.236 339.217C170.997 332.033 178.55 324.848 187.747 321.583C202.183 316.554 217.107 324.26 228.497 333.404C237.268 340.523 248.232 345.748 259.44 345.356C260.354 345.356 261.267 345.226 262.181 345.16C274.302 343.723 285.936 337.323 295.804 329.877C317.61 313.353 330.28 283.31 317.671 256.27C310.362 240.792 298.667 228.578 290.931 213.23Z" fill="white" stroke="#555555" stroke-width="1.24702" stroke-miterlimit="10" stroke-linecap="round" stroke-linejoin="round"/>
<path d="M141.437 257.026L150.969 245.572L157.697 249.792L166.107 239.543L172.835 245.572L184.049 203.973L195.262 229.294L201.43 198.547H211.522L223 293.5L231.706 282.347L240.677 285.362L246.845 282.347L255.255 270.29L267.59 252.806L276 241.351L292.26 239.543L304.595 235.323" stroke="#555555" stroke-width="1.24702"/>
<path d="M141.206 56.8745L147.967 51.7148" stroke="#1A1A1A" stroke-width="1.30089" stroke-miterlimit="10" stroke-linecap="round" stroke-linejoin="round"/>
<path d="M160.641 226.358C160.641 226.358 160.641 226.358 162.042 228.905C163.443 231.453 169.412 233.347 172.458 232.955C175.564 232.563 181.351 227.86 182.752 224.725C184.153 221.59 179.097 213.949 175.93 211.794C172.823 209.638 146.448 221.982 146.448 221.982L145.352 231.91C145.352 231.91 155.524 234.065 162.651 229.885" fill="white"/>
<path d="M160.641 226.358C160.641 226.358 160.641 226.358 162.042 228.905C163.443 231.453 169.412 233.347 172.458 232.955C175.564 232.563 181.351 227.86 182.752 224.725C184.153 221.59 179.097 213.949 175.93 211.794C172.823 209.638 146.448 221.982 146.448 221.982L145.352 231.91C145.352 231.91 155.524 234.065 162.651 229.885" stroke="#555555" stroke-width="1.30089" stroke-miterlimit="10" stroke-linecap="round" stroke-linejoin="round"/>
<path d="M116.284 48.1869C116.284 48.1869 57.0178 45.3132 37.0998 100.241C17.1818 155.168 23.5775 226.554 101.483 242.556C129.441 246.605 147.897 235.11 147.897 235.11C147.897 235.11 153.136 224.464 146.801 221.525C136.202 218.978 99.7166 212.512 104.468 163.985C109.219 115.458 129.656 108.078 151.187 108.078C221.6 108.078 245.717 108.078 245.717 108.078C245.717 108.078 234.209 65.4946 191.693 57.7225C149.177 49.885 116.284 48.1869 116.284 48.1869Z" fill="#FFAB00" stroke="#555555" stroke-width="1.24702" stroke-miterlimit="10" stroke-linecap="round" stroke-linejoin="round"/>
<path d="M191.033 89.269L177.632 98.674L186.464 106.707" fill="#FFAB00"/>
<path d="M191.033 89.269L177.632 98.674L186.464 106.707" stroke="#555555" stroke-width="1.24702" stroke-miterlimit="10" stroke-linecap="round" stroke-linejoin="round"/>
<path d="M348.994 108.648C322.433 115.642 293.207 121.334 280.073 158.695C274.835 176.917 282.936 197.294 290.915 213.165C298.59 228.513 310.346 240.792 317.594 256.271C330.264 283.31 317.533 313.354 295.727 329.878C285.921 337.323 274.226 343.724 262.104 345.161C261.191 345.291 260.277 345.357 259.363 345.357C248.156 345.748 237.252 340.458 228.42 333.404C217.091 324.261 202.107 316.554 187.671 321.583C178.473 324.783 170.92 332.033 164.159 339.217C147.032 358.309 121.801 367.352 107.224 369.764" stroke="#555555" stroke-width="1.24702" stroke-miterlimit="10" stroke-linecap="round" stroke-linejoin="round"/>
<path d="M163.556 155.246C166.849 155.246 169.518 152.576 169.518 149.283C169.518 145.99 166.849 143.321 163.556 143.321C160.263 143.321 157.593 145.99 157.593 149.283C157.593 152.576 160.263 155.246 163.556 155.246Z" fill="white" stroke="#555555" stroke-width="1.24702" stroke-miterlimit="10" stroke-linecap="round" stroke-linejoin="round"/>
<path d="M247.981 155.169H188.288C185.425 155.169 183.049 152.687 183.049 149.552C183.049 146.482 185.364 143.935 188.288 143.935H247.981C250.844 143.935 253.219 146.417 253.219 149.552C253.219 152.687 250.904 155.169 247.981 155.169Z" fill="white" stroke="#555555" stroke-width="1.24702" stroke-miterlimit="10" stroke-linecap="round" stroke-linejoin="round"/>
<path d="M141.333 292.454H315.235" stroke="#555555" stroke-width="1.30089" stroke-miterlimit="10" stroke-linecap="round" stroke-linejoin="round" stroke-dasharray="7.81 7.81"/>
<path d="M223.927 168.752L223.858 328.165" stroke="#555555" stroke-width="1.17943" stroke-miterlimit="10" stroke-linecap="round" stroke-linejoin="round" stroke-dasharray="7.08 7.08"/>
<path d="M148.084 44.334C157.343 58.2454 177.383 44.0727 181.037 41.003C184.692 37.9334 181.89 21.5401 173.241 17.8826C164.591 14.2251 145.83 26.1119 145.83 26.1119L107.639 49.2324C107.639 49.2324 114.157 66.6707 128.044 68.4341C141.932 70.1975 153.627 63.7317 148.998 53.2817L147.962 51.6489L151.739 48.318" fill="white"/>
<path d="M148.084 44.334C157.343 58.2454 177.383 44.0727 181.037 41.003C184.692 37.9334 181.89 21.5401 173.241 17.8826C164.591 14.2251 145.83 26.1119 145.83 26.1119L107.639 49.2324C107.639 49.2324 114.157 66.6707 128.044 68.4341C141.932 70.1975 153.627 63.7317 148.998 53.2817L147.962 51.6489L151.739 48.318" stroke="#555555" stroke-width="1.24702" stroke-miterlimit="10" stroke-linecap="round" stroke-linejoin="round"/>
<path d="M179.632 99.9799C179.632 99.9799 174.15 97.3674 169.764 99.588C165.379 101.809 163.612 106.25 163.551 108.144C163.491 110.038 163.856 117.81 168.607 118.137C173.358 118.463 179.145 114.675 180.241 111.475C181.337 108.275 183.957 106.576 184.505 104.813C185.053 102.984 179.632 99.9799 179.632 99.9799Z" fill="white" stroke="#555555" stroke-width="1.30089" stroke-miterlimit="10" stroke-linecap="round" stroke-linejoin="round"/>
<path d="M147.973 44.4624C148.217 46.0952 149.13 47.8586 150.288 49.6874L151.811 48.3158L147.973 44.4624Z" fill="#555555"/>
<path d="M183.11 34.9948L176.471 33.1661C168.187 30.8801 170.014 20.0383 170.014 20.0383C167.578 27.8758 157.954 31.1414 156.005 32.317C154.056 33.4926 151.497 31.8598 151.497 31.8598C151.497 31.8598 150.518 23.9257 144.062 27.5179C137.605 31.1101 142.421 36.8889 142.421 36.8889C142.421 36.8889 140.168 41.526 137.122 47.2735C134.381 52.3678 127.194 62.1646 125.671 65.169C125.488 65.1037 125.366 65.0384 125.245 64.9077C124.879 64.7118 124.575 64.5159 124.27 64.3199C107.885 70.3287 107.032 73.0064 102.22 78.8845C97.4082 84.7626 51.6638 145.699 51.6638 145.699C50.9328 146.417 49.2273 147.789 47.0954 149.422C42.1616 146.287 38.0196 141.192 37.2278 134.465C35.6441 121.207 30.223 117.419 16.9444 116.635C3.94988 113.472 -3.11632 111.775 3.94938 85.3891C11.0151 58.9377 34.1004 58.2193 44.3335 61.0277C54.5666 63.8362 70.7081 61.4196 80.2103 50.0553C89.6515 38.7563 93.6717 41.1729 106.463 39.8013C119.193 38.4298 121.282 15.6253 146.012 4.4569C170.802 -6.71147 179.699 10.8947 183.049 16.5768C186.399 22.259 183.11 34.9948 183.11 34.9948Z" fill="#555555" stroke="#555555" stroke-width="1.24702" stroke-miterlimit="10" stroke-linecap="round" stroke-linejoin="round"/>
<path d="M223.419 298.841C226.413 298.841 228.84 296.414 228.84 293.42C228.84 290.427 226.413 288 223.419 288C220.426 288 217.999 290.427 217.999 293.42C217.999 296.414 220.426 298.841 223.419 298.841Z" fill="#FF8A1F"/>
<rect x="195.999" y="257" width="53" height="18" rx="5.02285" fill="#FDF8ED"/>
<path d="M205.329 270.913V261.781H205.915V270.913H205.329ZM206.739 264.884C206.715 264.623 206.609 264.419 206.421 264.274C206.236 264.127 205.97 264.053 205.626 264.053C205.397 264.053 205.207 264.083 205.055 264.142C204.903 264.202 204.788 264.284 204.712 264.389C204.636 264.491 204.597 264.609 204.595 264.742C204.59 264.851 204.611 264.947 204.659 265.031C204.709 265.114 204.78 265.188 204.873 265.252C204.968 265.314 205.082 265.368 205.215 265.416C205.349 265.463 205.498 265.505 205.665 265.541L206.293 265.683C206.654 265.762 206.973 265.867 207.249 265.997C207.527 266.128 207.76 266.284 207.948 266.465C208.138 266.645 208.282 266.854 208.38 267.089C208.477 267.324 208.527 267.588 208.529 267.881C208.527 268.342 208.411 268.738 208.18 269.069C207.949 269.399 207.617 269.653 207.185 269.829C206.754 270.005 206.234 270.093 205.626 270.093C205.014 270.093 204.482 270.001 204.027 269.818C203.573 269.635 203.22 269.357 202.968 268.983C202.716 268.61 202.586 268.138 202.579 267.567H204.27C204.284 267.803 204.347 267.999 204.459 268.156C204.571 268.313 204.724 268.432 204.919 268.512C205.117 268.593 205.345 268.634 205.604 268.634C205.842 268.634 206.044 268.602 206.211 268.537C206.379 268.473 206.509 268.384 206.599 268.27C206.69 268.156 206.736 268.025 206.739 267.877C206.736 267.739 206.693 267.622 206.61 267.524C206.527 267.424 206.399 267.339 206.225 267.267C206.054 267.194 205.835 267.126 205.569 267.064L204.805 266.886C204.172 266.741 203.674 266.506 203.31 266.183C202.946 265.857 202.766 265.417 202.768 264.863C202.766 264.411 202.887 264.015 203.132 263.675C203.377 263.335 203.716 263.07 204.149 262.88C204.582 262.689 205.075 262.594 205.629 262.594C206.195 262.594 206.686 262.69 207.102 262.883C207.521 263.073 207.846 263.341 208.076 263.686C208.307 264.031 208.425 264.43 208.43 264.884H206.739ZM209.407 270V268.73L212.072 266.397C212.272 266.216 212.442 266.051 212.582 265.901C212.722 265.749 212.829 265.597 212.903 265.444C212.977 265.29 213.014 265.122 213.014 264.941C213.014 264.739 212.97 264.567 212.882 264.424C212.794 264.279 212.672 264.167 212.518 264.089C212.363 264.01 212.186 263.971 211.986 263.971C211.784 263.971 211.607 264.013 211.455 264.096C211.302 264.177 211.184 264.295 211.098 264.449C211.015 264.604 210.973 264.792 210.973 265.013H209.3C209.3 264.516 209.412 264.086 209.635 263.725C209.859 263.364 210.173 263.085 210.577 262.89C210.984 262.693 211.456 262.594 211.993 262.594C212.547 262.594 213.029 262.687 213.438 262.872C213.847 263.058 214.163 263.317 214.387 263.65C214.613 263.981 214.726 264.365 214.726 264.802C214.726 265.081 214.67 265.356 214.558 265.63C214.446 265.903 214.246 266.206 213.955 266.536C213.668 266.867 213.259 267.263 212.728 267.724L211.854 268.53V268.577H214.815V270H209.407ZM218.835 270.178C218.197 270.178 217.648 270.027 217.187 269.725C216.725 269.421 216.37 268.984 216.12 268.416C215.87 267.845 215.747 267.159 215.749 266.358C215.751 265.556 215.876 264.876 216.123 264.317C216.373 263.756 216.728 263.329 217.187 263.037C217.648 262.742 218.197 262.594 218.835 262.594C219.472 262.594 220.021 262.742 220.483 263.037C220.947 263.329 221.303 263.756 221.553 264.317C221.803 264.878 221.926 265.559 221.924 266.358C221.924 267.162 221.799 267.849 221.549 268.42C221.3 268.99 220.944 269.427 220.483 269.729C220.024 270.029 219.474 270.178 218.835 270.178ZM218.835 268.734C219.215 268.734 219.523 268.54 219.759 268.152C219.994 267.762 220.111 267.164 220.108 266.358C220.108 265.83 220.055 265.395 219.948 265.052C219.841 264.707 219.692 264.45 219.502 264.282C219.311 264.113 219.089 264.028 218.835 264.028C218.457 264.028 218.151 264.22 217.918 264.603C217.685 264.983 217.567 265.568 217.565 266.358C217.562 266.893 217.613 267.336 217.718 267.688C217.825 268.04 217.975 268.303 218.168 268.477C218.36 268.648 218.583 268.734 218.835 268.734ZM225.957 270.178C225.32 270.178 224.77 270.027 224.309 269.725C223.847 269.421 223.492 268.984 223.242 268.416C222.992 267.845 222.869 267.159 222.871 266.358C222.874 265.556 222.998 264.876 223.246 264.317C223.495 263.756 223.85 263.329 224.309 263.037C224.77 262.742 225.32 262.594 225.957 262.594C226.594 262.594 227.144 262.742 227.605 263.037C228.069 263.329 228.426 263.756 228.675 264.317C228.925 264.878 229.049 265.559 229.046 266.358C229.046 267.162 228.921 267.849 228.672 268.42C228.422 268.99 228.066 269.427 227.605 269.729C227.146 270.029 226.597 270.178 225.957 270.178ZM225.957 268.734C226.337 268.734 226.645 268.54 226.881 268.152C227.116 267.762 227.233 267.164 227.23 266.358C227.23 265.83 227.177 265.395 227.07 265.052C226.963 264.707 226.814 264.45 226.624 264.282C226.434 264.113 226.211 264.028 225.957 264.028C225.579 264.028 225.273 264.22 225.04 264.603C224.807 264.983 224.689 265.568 224.687 266.358C224.685 266.893 224.736 267.336 224.84 267.688C224.947 268.04 225.097 268.303 225.29 268.477C225.482 268.648 225.705 268.734 225.957 268.734ZM233.079 270.178C232.442 270.178 231.892 270.027 231.431 269.725C230.97 269.421 230.614 268.984 230.364 268.416C230.115 267.845 229.991 267.159 229.993 266.358C229.996 265.556 230.121 264.876 230.368 264.317C230.618 263.756 230.972 263.329 231.431 263.037C231.892 262.742 232.442 262.594 233.079 262.594C233.717 262.594 234.266 262.742 234.727 263.037C235.191 263.329 235.548 263.756 235.797 264.317C236.047 264.878 236.171 265.559 236.168 266.358C236.168 267.162 236.044 267.849 235.794 268.42C235.544 268.99 235.189 269.427 234.727 269.729C234.268 270.029 233.719 270.178 233.079 270.178ZM233.079 268.734C233.46 268.734 233.768 268.54 234.003 268.152C234.239 267.762 234.355 267.164 234.353 266.358C234.353 265.83 234.299 265.395 234.192 265.052C234.085 264.707 233.937 264.45 233.746 264.282C233.556 264.113 233.334 264.028 233.079 264.028C232.701 264.028 232.395 264.22 232.162 264.603C231.929 264.983 231.812 265.568 231.809 266.358C231.807 266.893 231.858 267.336 231.963 267.688C232.07 268.04 232.219 268.303 232.412 268.477C232.605 268.648 232.827 268.734 233.079 268.734ZM240.201 270.178C239.564 270.178 239.015 270.027 238.553 269.725C238.092 269.421 237.736 268.984 237.487 268.416C237.237 267.845 237.113 267.159 237.116 266.358C237.118 265.556 237.243 264.876 237.49 264.317C237.74 263.756 238.094 263.329 238.553 263.037C239.015 262.742 239.564 262.594 240.201 262.594C240.839 262.594 241.388 262.742 241.85 263.037C242.313 263.329 242.67 263.756 242.92 264.317C243.169 264.878 243.293 265.559 243.291 266.358C243.291 267.162 243.166 267.849 242.916 268.42C242.666 268.99 242.311 269.427 241.85 269.729C241.391 270.029 240.841 270.178 240.201 270.178ZM240.201 268.734C240.582 268.734 240.89 268.54 241.125 268.152C241.361 267.762 241.477 267.164 241.475 266.358C241.475 265.83 241.421 265.395 241.314 265.052C241.207 264.707 241.059 264.45 240.868 264.282C240.678 264.113 240.456 264.028 240.201 264.028C239.823 264.028 239.518 264.22 239.285 264.603C239.052 264.983 238.934 265.568 238.931 266.358C238.929 266.893 238.98 267.336 239.085 267.688C239.192 268.04 239.342 268.303 239.534 268.477C239.727 268.648 239.949 268.734 240.201 268.734Z" fill="#FF8A1F"/>
</svg>
