<svg width="351" height="325" viewBox="0 0 351 325" fill="none" xmlns="http://www.w3.org/2000/svg">
<mask id="mask0_1976_5263" style="mask-type:alpha" maskUnits="userSpaceOnUse" x="0" y="0" width="351" height="325">
<rect width="351" height="325" rx="22.9959" fill="white"/>
</mask>
<g mask="url(#mask0_1976_5263)">
<path d="M91.3674 198.258C91.3674 198.258 121.275 232.35 128.036 234.245C128.036 151.102 143.386 124.912 143.386 124.912L154.837 110.739L128.95 101.269C128.95 101.269 84.5454 162.858 91.3674 198.258Z" fill="white" stroke="#1A1A1A" stroke-width="1.30089" stroke-miterlimit="10" stroke-linecap="round" stroke-linejoin="round"/>
<path d="M363.466 120.01C356.03 120.01 320.102 124.728 301.13 141.576H163.398C152.489 141.576 143.714 150.951 143.714 162.554L143.153 369.428C136.144 373.493 129.075 376.312 122.127 378.147L122.688 140.2C122.688 128.138 131.83 120.01 143.043 120.01H363.466Z" fill="white" stroke="#555555" stroke-width="1.24702" stroke-miterlimit="10" stroke-linecap="round" stroke-linejoin="round"/>
<path d="M281.295 174.222C281.539 173.046 281.783 171.871 282.148 170.76C285.957 157.968 294.083 148.042 300.588 141.631L163.127 141.958C152.224 141.958 143.453 151.297 143.453 162.858V180.949H280.564C280.564 178.663 280.869 176.377 281.295 174.222Z" fill="#FCF7EC" stroke="#555555" stroke-width="1.24702" stroke-miterlimit="10" stroke-linecap="round" stroke-linejoin="round"/>
<path d="M292.931 225.23C286.414 212.233 279.774 196.297 280.444 180.948H143.333V369.504C146.988 367.414 150.581 364.998 154.114 362.255C158.195 359.054 162.276 355.397 166.236 351.217C172.997 344.033 180.55 336.848 189.747 333.583C204.183 328.554 219.107 336.26 230.497 345.404C239.268 352.523 250.232 357.748 261.44 357.356C262.354 357.356 263.267 357.226 264.181 357.16C276.302 355.723 287.936 349.323 297.804 341.877C319.61 325.353 332.28 295.31 319.671 268.27C312.362 252.792 300.667 240.578 292.931 225.23Z" fill="white" stroke="#555555" stroke-width="1.24702" stroke-miterlimit="10" stroke-linecap="round" stroke-linejoin="round"/>
<path d="M143.437 269.026L152.969 257.571L159.697 261.791L168.107 251.542L174.835 257.571L186.049 215.972L197.262 241.293L203.43 210.547H213.522L225 305.5L233.706 294.347L242.677 297.361L248.845 294.347L257.255 282.289L269.59 264.806L278 253.351L294.26 251.542L306.595 247.322" stroke="#555555" stroke-width="1.24702"/>
<path d="M143.206 68.8744L149.967 63.7147" stroke="#1A1A1A" stroke-width="1.30089" stroke-miterlimit="10" stroke-linecap="round" stroke-linejoin="round"/>
<path d="M162.641 238.359C162.641 238.359 162.641 238.359 164.042 240.906C165.443 243.453 171.412 245.347 174.458 244.955C177.564 244.563 183.351 239.861 184.752 236.726C186.153 233.591 181.097 225.949 177.93 223.794C174.823 221.639 148.448 233.983 148.448 233.983L147.352 243.91C147.352 243.91 157.524 246.065 164.651 241.885" fill="white"/>
<path d="M162.641 238.359C162.641 238.359 162.641 238.359 164.042 240.906C165.443 243.453 171.412 245.347 174.458 244.955C177.564 244.563 183.351 239.861 184.752 236.726C186.153 233.591 181.097 225.949 177.93 223.794C174.823 221.639 148.448 233.983 148.448 233.983L147.352 243.91C147.352 243.91 157.524 246.065 164.651 241.885" stroke="#555555" stroke-width="1.30089" stroke-miterlimit="10" stroke-linecap="round" stroke-linejoin="round"/>
<path d="M118.284 60.1869C118.284 60.1869 59.0178 57.3132 39.0998 112.241C19.1818 167.168 25.5775 238.554 103.483 254.556C131.441 258.605 149.897 247.11 149.897 247.11C149.897 247.11 155.136 236.464 148.801 233.525C138.202 230.978 101.717 224.512 106.468 175.985C111.219 127.458 131.656 120.078 153.187 120.078C223.6 120.078 247.717 120.078 247.717 120.078C247.717 120.078 236.209 77.4946 193.693 69.7225C151.177 61.885 118.284 60.1869 118.284 60.1869Z" fill="#FFAB00" stroke="#555555" stroke-width="1.24702" stroke-miterlimit="10" stroke-linecap="round" stroke-linejoin="round"/>
<path d="M193.033 101.269L179.632 110.674L188.464 118.707" fill="#FFAB00"/>
<path d="M193.033 101.269L179.632 110.674L188.464 118.707" stroke="#555555" stroke-width="1.24702" stroke-miterlimit="10" stroke-linecap="round" stroke-linejoin="round"/>
<path d="M350.994 120.648C324.433 127.642 295.207 133.334 282.073 170.695C276.835 188.917 284.936 209.294 292.915 225.165C300.59 240.513 312.346 252.792 319.594 268.271C332.264 295.31 319.533 325.354 297.727 341.878C287.921 349.323 276.226 355.724 264.104 357.161C263.191 357.291 262.277 357.357 261.363 357.357C250.156 357.749 239.252 352.458 230.42 345.405C219.091 336.261 204.107 328.554 189.671 333.583C180.473 336.783 172.92 344.033 166.159 351.217C149.032 370.309 123.801 379.352 109.224 381.764" stroke="#555555" stroke-width="1.24702" stroke-miterlimit="10" stroke-linecap="round" stroke-linejoin="round"/>
<path d="M165.556 167.246C168.849 167.246 171.518 164.577 171.518 161.284C171.518 157.991 168.849 155.321 165.556 155.321C162.263 155.321 159.593 157.991 159.593 161.284C159.593 164.577 162.263 167.246 165.556 167.246Z" fill="white" stroke="#555555" stroke-width="1.24702" stroke-miterlimit="10" stroke-linecap="round" stroke-linejoin="round"/>
<path d="M249.981 167.169H190.288C187.425 167.169 185.049 164.687 185.049 161.552C185.049 158.482 187.364 155.935 190.288 155.935H249.981C252.844 155.935 255.219 158.417 255.219 161.552C255.219 164.687 252.904 167.169 249.981 167.169Z" fill="white" stroke="#555555" stroke-width="1.24702" stroke-miterlimit="10" stroke-linecap="round" stroke-linejoin="round"/>
<path d="M143.333 304.454H317.235" stroke="#555555" stroke-width="1.30089" stroke-miterlimit="10" stroke-linecap="round" stroke-linejoin="round" stroke-dasharray="7.81 7.81"/>
<path d="M225.927 180.753L225.858 340.165" stroke="#555555" stroke-width="1.17943" stroke-miterlimit="10" stroke-linecap="round" stroke-linejoin="round" stroke-dasharray="7.08 7.08"/>
<path d="M150.084 56.334C159.343 70.2454 179.383 56.0727 183.037 53.003C186.692 49.9334 183.89 33.5401 175.241 29.8826C166.591 26.2251 147.83 38.1119 147.83 38.1119L109.639 61.2324C109.639 61.2324 116.157 78.6707 130.044 80.4341C143.932 82.1975 155.627 75.7317 150.998 65.2817L149.962 63.6489L153.739 60.318" fill="white"/>
<path d="M150.084 56.334C159.343 70.2454 179.383 56.0727 183.037 53.003C186.692 49.9334 183.89 33.5401 175.241 29.8826C166.591 26.2251 147.83 38.1119 147.83 38.1119L109.639 61.2324C109.639 61.2324 116.157 78.6707 130.044 80.4341C143.932 82.1975 155.627 75.7317 150.998 65.2817L149.962 63.6489L153.739 60.318" stroke="#555555" stroke-width="1.24702" stroke-miterlimit="10" stroke-linecap="round" stroke-linejoin="round"/>
<path d="M181.632 111.98C181.632 111.98 176.15 109.367 171.764 111.588C167.379 113.809 165.612 118.25 165.551 120.144C165.491 122.038 165.856 129.81 170.607 130.137C175.358 130.463 181.145 126.675 182.241 123.475C183.337 120.275 185.957 118.576 186.505 116.813C187.053 114.984 181.632 111.98 181.632 111.98Z" fill="white" stroke="#555555" stroke-width="1.30089" stroke-miterlimit="10" stroke-linecap="round" stroke-linejoin="round"/>
<path d="M149.973 56.4628C150.217 58.0956 151.13 59.859 152.288 61.6877L153.811 60.3162L149.973 56.4628Z" fill="#555555"/>
<path d="M185.11 46.9949L178.471 45.1662C170.187 42.8803 172.014 32.0385 172.014 32.0385C169.578 39.8759 159.954 43.1415 158.005 44.3171C156.056 45.4928 153.497 43.8599 153.497 43.8599C153.497 43.8599 152.518 35.9259 146.062 39.518C139.605 43.1102 144.421 48.889 144.421 48.889C144.421 48.889 142.168 53.5261 139.122 59.2736C136.381 64.3679 129.194 74.1647 127.671 77.1691C127.488 77.1038 127.366 77.0385 127.245 76.9079C126.879 76.7119 126.575 76.516 126.27 76.3201C109.885 82.3288 109.032 85.0065 104.22 90.8846C99.4082 96.7627 53.6638 157.699 53.6638 157.699C52.9328 158.417 51.2273 159.789 49.0954 161.422C44.1616 158.287 40.0196 153.192 39.2278 146.465C37.6441 133.207 32.223 129.419 18.9444 128.635C5.94988 125.473 -1.11632 123.775 5.94938 97.3893C13.0151 70.9379 36.1004 70.2194 46.3335 73.0279C56.5666 75.8363 72.7081 73.4197 82.2103 62.0554C91.6515 50.7564 95.6717 53.173 108.463 51.8014C121.193 50.4299 123.282 27.6254 148.012 16.457C172.802 5.28865 181.699 22.8948 185.049 28.5769C188.399 34.2591 185.11 46.9949 185.11 46.9949Z" fill="#555555" stroke="#555555" stroke-width="1.24702" stroke-miterlimit="10" stroke-linecap="round" stroke-linejoin="round"/>
<path d="M225.419 310.841C228.413 310.841 230.84 308.414 230.84 305.42C230.84 302.426 228.413 300 225.419 300C222.426 300 219.999 302.426 219.999 305.42C219.999 308.414 222.426 310.841 225.419 310.841Z" fill="#FF8A1F"/>
<rect x="197.999" y="269" width="53" height="18" rx="5.02285" fill="#FDF8ED"/>
<path d="M212.096 282.913V273.78H212.681V282.913H212.096ZM213.505 276.884C213.481 276.622 213.375 276.419 213.188 276.274C213.002 276.127 212.737 276.053 212.392 276.053C212.164 276.053 211.974 276.083 211.821 276.142C211.669 276.201 211.555 276.284 211.479 276.388C211.403 276.49 211.363 276.608 211.361 276.741C211.356 276.851 211.378 276.947 211.425 277.03C211.475 277.114 211.547 277.187 211.639 277.251C211.734 277.313 211.849 277.368 211.982 277.416C212.115 277.463 212.265 277.505 212.431 277.54L213.059 277.683C213.421 277.762 213.739 277.866 214.015 277.997C214.293 278.128 214.527 278.284 214.714 278.464C214.905 278.645 215.049 278.853 215.146 279.089C215.244 279.324 215.294 279.588 215.296 279.881C215.294 280.342 215.177 280.738 214.946 281.069C214.716 281.399 214.384 281.652 213.951 281.828C213.521 282.004 213.001 282.092 212.392 282.092C211.781 282.092 211.248 282.001 210.794 281.818C210.34 281.635 209.986 281.356 209.734 280.983C209.482 280.61 209.353 280.137 209.346 279.567H211.036C211.051 279.802 211.114 279.998 211.226 280.155C211.337 280.312 211.491 280.431 211.686 280.512C211.883 280.593 212.111 280.633 212.371 280.633C212.608 280.633 212.811 280.601 212.977 280.537C213.146 280.473 213.276 280.384 213.366 280.269C213.456 280.155 213.503 280.025 213.505 279.877C213.503 279.739 213.46 279.621 213.377 279.524C213.293 279.424 213.165 279.338 212.991 279.267C212.82 279.193 212.601 279.126 212.335 279.064L211.572 278.885C210.939 278.74 210.441 278.506 210.077 278.183C209.713 277.857 209.532 277.417 209.535 276.863C209.532 276.411 209.654 276.015 209.898 275.675C210.143 275.335 210.482 275.069 210.915 274.879C211.348 274.689 211.842 274.594 212.396 274.594C212.962 274.594 213.453 274.69 213.869 274.883C214.288 275.073 214.612 275.341 214.843 275.685C215.074 276.03 215.191 276.43 215.196 276.884H213.505ZM219.552 274.694V282H217.789V276.342H217.747L216.113 277.341V275.814L217.914 274.694H219.552ZM224.188 282.178C223.551 282.178 223.002 282.027 222.54 281.725C222.079 281.421 221.723 280.984 221.474 280.416C221.224 279.845 221.1 279.159 221.103 278.357C221.105 277.556 221.23 276.876 221.477 276.317C221.727 275.756 222.081 275.329 222.54 275.036C223.002 274.741 223.551 274.594 224.188 274.594C224.826 274.594 225.375 274.741 225.837 275.036C226.3 275.329 226.657 275.756 226.907 276.317C227.157 276.878 227.28 277.558 227.278 278.357C227.278 279.161 227.153 279.849 226.903 280.419C226.654 280.99 226.298 281.426 225.837 281.729C225.378 282.028 224.828 282.178 224.188 282.178ZM224.188 280.733C224.569 280.733 224.877 280.539 225.112 280.152C225.348 279.762 225.464 279.164 225.462 278.357C225.462 277.829 225.409 277.394 225.301 277.052C225.194 276.707 225.046 276.45 224.856 276.281C224.665 276.112 224.443 276.028 224.188 276.028C223.81 276.028 223.505 276.219 223.272 276.602C223.039 276.983 222.921 277.568 222.918 278.357C222.916 278.892 222.967 279.336 223.072 279.688C223.179 280.04 223.329 280.303 223.521 280.476C223.714 280.648 223.936 280.733 224.188 280.733ZM231.311 282.178C230.673 282.178 230.124 282.027 229.663 281.725C229.201 281.421 228.846 280.984 228.596 280.416C228.346 279.845 228.223 279.159 228.225 278.357C228.227 277.556 228.352 276.876 228.6 276.317C228.849 275.756 229.204 275.329 229.663 275.036C230.124 274.741 230.673 274.594 231.311 274.594C231.948 274.594 232.497 274.741 232.959 275.036C233.423 275.329 233.779 275.756 234.029 276.317C234.279 276.878 234.402 277.558 234.4 278.357C234.4 279.161 234.275 279.849 234.025 280.419C233.776 280.99 233.42 281.426 232.959 281.729C232.5 282.028 231.95 282.178 231.311 282.178ZM231.311 280.733C231.691 280.733 231.999 280.539 232.235 280.152C232.47 279.762 232.587 279.164 232.584 278.357C232.584 277.829 232.531 277.394 232.424 277.052C232.317 276.707 232.168 276.45 231.978 276.281C231.788 276.112 231.565 276.028 231.311 276.028C230.933 276.028 230.627 276.219 230.394 276.602C230.161 276.983 230.043 277.568 230.041 278.357C230.038 278.892 230.089 279.336 230.194 279.688C230.301 280.04 230.451 280.303 230.644 280.476C230.836 280.648 231.059 280.733 231.311 280.733ZM238.433 282.178C237.796 282.178 237.246 282.027 236.785 281.725C236.323 281.421 235.968 280.984 235.718 280.416C235.468 279.845 235.345 279.159 235.347 278.357C235.35 277.556 235.474 276.876 235.722 276.317C235.971 275.756 236.326 275.329 236.785 275.036C237.246 274.741 237.796 274.594 238.433 274.594C239.07 274.594 239.62 274.741 240.081 275.036C240.545 275.329 240.902 275.756 241.151 276.317C241.401 276.878 241.525 277.558 241.522 278.357C241.522 279.161 241.397 279.849 241.148 280.419C240.898 280.99 240.542 281.426 240.081 281.729C239.622 282.028 239.073 282.178 238.433 282.178ZM238.433 280.733C238.813 280.733 239.121 280.539 239.357 280.152C239.592 279.762 239.709 279.164 239.707 278.357C239.707 277.829 239.653 277.394 239.546 277.052C239.439 276.707 239.29 276.45 239.1 276.281C238.91 276.112 238.687 276.028 238.433 276.028C238.055 276.028 237.749 276.219 237.516 276.602C237.283 276.983 237.165 277.568 237.163 278.357C237.161 278.892 237.212 279.336 237.316 279.688C237.423 280.04 237.573 280.303 237.766 280.476C237.958 280.648 238.181 280.733 238.433 280.733Z" fill="#FF8A1F"/>
</g>
</svg>
