<svg width="93" height="136" viewBox="0 0 93 136" fill="none" xmlns="http://www.w3.org/2000/svg">
<line x1="37" y1="5" x2="15" y2="5" stroke="#040415" stroke-opacity="0.3" stroke-width="2" stroke-linecap="round" stroke-linejoin="round" stroke-dasharray="4 4"/>
<circle r="5" transform="matrix(-1 0 0 1 34 5)" fill="#FF9431"/>
<circle r="4.5" transform="matrix(-1 0 0 1 34 5)" stroke="white" stroke-opacity="0.53"/>
<path fill-rule="evenodd" clip-rule="evenodd" d="M34.8926 5.26583C35.0332 5.11939 35.0332 4.88194 34.8926 4.7355L33.8126 3.6105C33.672 3.46406 33.4441 3.46406 33.3035 3.6105C33.1629 3.75694 33.1629 3.99439 33.3035 4.14083L34.1289 5.00067L33.3035 5.8605C33.1629 6.00695 33.1629 6.24439 33.3035 6.39084C33.4441 6.53728 33.672 6.53728 33.8126 6.39084L34.8926 5.26583Z" fill="white"/>
<line x1="87" y1="131" x2="14" y2="131" stroke="#040415" stroke-opacity="0.3" stroke-width="2" stroke-linecap="round" stroke-linejoin="round" stroke-dasharray="4 4"/>
<line x1="12" y1="5" x2="12" y2="59" stroke="#040415" stroke-opacity="0.3" stroke-width="2" stroke-linecap="round" stroke-linejoin="round" stroke-dasharray="4 4"/>
<line x1="12" y1="99" x2="12" y2="129" stroke="#040415" stroke-opacity="0.3" stroke-width="2" stroke-linecap="round" stroke-linejoin="round" stroke-dasharray="4 4"/>
<path d="M13.1676 77.4545C13.1676 78.8821 12.897 80.0966 12.3558 81.098C11.8189 82.0994 11.0859 82.8643 10.157 83.3928C9.23224 83.9169 8.19247 84.179 7.03764 84.179C5.87429 84.179 4.83026 83.9148 3.90554 83.3864C2.98082 82.858 2.25 82.093 1.71307 81.0916C1.17614 80.0902 0.90767 78.8778 0.90767 77.4545C0.90767 76.027 1.17614 74.8125 1.71307 73.8111C2.25 72.8097 2.98082 72.0469 3.90554 71.5227C4.83026 70.9943 5.87429 70.7301 7.03764 70.7301C8.19247 70.7301 9.23224 70.9943 10.157 71.5227C11.0859 72.0469 11.8189 72.8097 12.3558 73.8111C12.897 74.8125 13.1676 76.027 13.1676 77.4545ZM10.3615 77.4545C10.3615 76.5298 10.223 75.75 9.94602 75.1151C9.6733 74.4801 9.28764 73.9986 8.78906 73.6705C8.29048 73.3423 7.70668 73.1783 7.03764 73.1783C6.36861 73.1783 5.7848 73.3423 5.28622 73.6705C4.78764 73.9986 4.39986 74.4801 4.12287 75.1151C3.85014 75.75 3.71378 76.5298 3.71378 77.4545C3.71378 78.3793 3.85014 79.1591 4.12287 79.794C4.39986 80.429 4.78764 80.9105 5.28622 81.2386C5.7848 81.5668 6.36861 81.7308 7.03764 81.7308C7.70668 81.7308 8.29048 81.5668 8.78906 81.2386C9.28764 80.9105 9.6733 80.429 9.94602 79.794C10.223 79.1591 10.3615 78.3793 10.3615 77.4545ZM15.2179 84V70.9091H20.3826C21.3713 70.9091 22.215 71.0859 22.9139 71.4396C23.617 71.7891 24.1518 72.2855 24.5183 72.929C24.889 73.5682 25.0744 74.3203 25.0744 75.1854C25.0744 76.0547 24.8869 76.8026 24.5119 77.429C24.1369 78.0511 23.5936 78.5284 22.8819 78.8608C22.1745 79.1932 21.318 79.3594 20.3123 79.3594H16.8542V77.1349H19.8649C20.3933 77.1349 20.8322 77.0625 21.1816 76.9176C21.5311 76.7727 21.791 76.5554 21.9615 76.2656C22.1362 75.9759 22.2235 75.6158 22.2235 75.1854C22.2235 74.7507 22.1362 74.3842 21.9615 74.0859C21.791 73.7876 21.5289 73.5618 21.1752 73.4084C20.8258 73.2507 20.3848 73.1719 19.8521 73.1719H17.9856V84H15.2179ZM22.2875 78.0426L25.541 84H22.4856L19.3024 78.0426H22.2875Z" fill="#0A1629"/>
<circle r="5" transform="matrix(-1 0 0 1 88 131)" fill="#FF9431"/>
<circle r="4.5" transform="matrix(-1 0 0 1 88 131)" stroke="white" stroke-opacity="0.53"/>
<path fill-rule="evenodd" clip-rule="evenodd" d="M88.8926 131.266C89.0332 131.119 89.0332 130.882 88.8926 130.736L87.8126 129.61C87.672 129.464 87.4441 129.464 87.3035 129.61C87.1629 129.757 87.1629 129.994 87.3035 130.141L88.1289 131.001L87.3035 131.861C87.1629 132.007 87.1629 132.244 87.3035 132.391C87.4441 132.537 87.672 132.537 87.8126 132.391L88.8926 131.266Z" fill="white"/>
</svg>
