<svg width="152" height="50" viewBox="0 0 152 50" fill="none" xmlns="http://www.w3.org/2000/svg">
<path d="M126.445 49.9997L130.614 47.2291C130.417 46.9336 110.801 18.0883 82.8018 29.768C72.5778 34.0347 53.5403 41.9711 38.9372 25.5506C37.4139 23.7301 36.0009 21.8201 34.706 19.8308C28.8056 11.2727 20.7373 -0.456335 -9.15527e-05 0.37485L0.20314 5.38051C18.1628 4.6663 24.7591 14.2342 30.5794 22.6754C31.9971 24.8278 33.5417 26.8939 35.2049 28.8629C52.1791 47.9494 74.173 38.7819 84.748 34.3735C108.953 24.2823 126.272 49.735 126.445 49.9997Z" fill="#FCF7EC"/>
<path d="M100.471 36.7163C101.714 36.7171 102.928 36.3494 103.961 35.6598C104.994 34.9702 105.8 33.9897 106.275 32.8423C106.751 31.6948 106.876 30.4321 106.633 29.2138C106.391 27.9955 105.793 26.8765 104.915 25.9982C104.037 25.1199 102.918 24.5217 101.699 24.2796C100.481 24.0375 99.2183 24.1622 98.0708 24.6379C96.9234 25.1136 95.9429 25.9189 95.2533 26.952C94.5637 27.9851 94.196 29.1995 94.1968 30.4416C94.1988 32.1051 94.8606 33.6999 96.0369 34.8762C97.2131 36.0525 98.8079 36.7142 100.471 36.7163Z" fill="#FE7207"/>
<path d="M20.1067 12.8579C21.3485 12.8579 22.5624 12.4896 23.5949 11.7997C24.6274 11.1098 25.4321 10.1293 25.9073 8.98203C26.3825 7.83477 26.5069 6.57236 26.2646 5.35443C26.0223 4.13651 25.4244 3.01779 24.5463 2.13972C23.6682 1.26164 22.5495 0.663694 21.3316 0.421434C20.1136 0.179173 18.8512 0.303477 17.704 0.778688C16.5567 1.2539 15.5761 2.05868 14.8862 3.09119C14.1963 4.12369 13.8281 5.3376 13.8281 6.57939C13.8292 8.24425 14.491 9.84058 15.6682 11.0178C16.8454 12.1951 18.4418 12.8569 20.1067 12.8579Z" fill="#38CB89"/>
<rect x="47" width="102" height="18" rx="4" fill="#FCEFEB"/>
<path d="M58.2534 13H55.5529V5.69403H58.2499C58.9943 5.69403 59.6352 5.8403 60.1727 6.13282C60.7125 6.42297 61.1287 6.84154 61.4213 7.38853C61.7138 7.93315 61.86 8.58479 61.86 9.34345C61.86 10.1045 61.7138 10.7585 61.4213 11.3055C61.1311 11.8525 60.7161 12.2723 60.1762 12.5648C59.6364 12.8549 58.9955 13 58.2534 13ZM57.3188 11.4946H58.1857C58.5947 11.4946 58.9408 11.4256 59.2238 11.2877C59.5092 11.1473 59.7244 10.9202 59.8695 10.6063C60.0169 10.29 60.0906 9.86904 60.0906 9.34345C60.0906 8.81786 60.0169 8.39929 59.8695 8.08774C59.722 7.77381 59.5044 7.54788 59.2166 7.40994C58.9312 7.26962 58.5793 7.19946 58.1607 7.19946H57.3188V11.4946ZM62.891 13V5.69403H65.909C66.456 5.69403 66.9281 5.79273 67.3253 5.99013C67.7248 6.18514 68.0328 6.46577 68.2492 6.83202C68.4656 7.1959 68.5738 7.62755 68.5738 8.12698C68.5738 8.63354 68.4632 9.06401 68.2421 9.41836C68.0209 9.77034 67.707 10.0391 67.3003 10.2246C66.8936 10.4077 66.412 10.4993 65.8555 10.4993H63.947V9.108H65.5273C65.7937 9.108 66.016 9.07352 66.1944 9.00455C66.3751 8.9332 66.5119 8.82618 66.6046 8.68349C66.6974 8.53841 66.7438 8.35291 66.7438 8.12698C66.7438 7.90104 66.6974 7.71435 66.6046 7.5669C66.5119 7.41707 66.3751 7.30529 66.1944 7.23157C66.0136 7.15547 65.7913 7.11741 65.5273 7.11741H64.6569V13H62.891ZM67.0042 9.66095L68.8235 13H66.8972L65.1135 9.66095H67.0042ZM76.4381 9.34702C76.4381 10.1509 76.2835 10.8322 75.9743 11.3911C75.6652 11.95 75.2466 12.3745 74.7186 12.6647C74.193 12.9548 73.6032 13.0999 72.9492 13.0999C72.2928 13.0999 71.7018 12.9536 71.1762 12.6611C70.6506 12.3686 70.2332 11.9441 69.9241 11.3876C69.6173 10.8287 69.4639 10.1485 69.4639 9.34702C69.4639 8.54317 69.6173 7.8618 69.9241 7.30292C70.2332 6.74403 70.6506 6.31951 71.1762 6.02937C71.7018 5.73922 72.2928 5.59415 72.9492 5.59415C73.6032 5.59415 74.193 5.73922 74.7186 6.02937C75.2466 6.31951 75.6652 6.74403 75.9743 7.30292C76.2835 7.8618 76.4381 8.54317 76.4381 9.34702ZM74.633 9.34702C74.633 8.87137 74.5652 8.46945 74.4297 8.14125C74.2965 7.81305 74.1038 7.56452 73.8517 7.39567C73.602 7.22681 73.3012 7.14238 72.9492 7.14238C72.5996 7.14238 72.2988 7.22681 72.0467 7.39567C71.7946 7.56452 71.6007 7.81305 71.4652 8.14125C71.332 8.46945 71.2654 8.87137 71.2654 9.34702C71.2654 9.82267 71.332 10.2246 71.4652 10.5528C71.6007 10.881 71.7946 11.1295 72.0467 11.2984C72.2988 11.4672 72.5996 11.5516 72.9492 11.5516C73.3012 11.5516 73.602 11.4672 73.8517 11.2984C74.1038 11.1295 74.2965 10.881 74.4297 10.5528C74.5652 10.2246 74.633 9.82267 74.633 9.34702ZM77.4691 13V5.69403H80.487C81.034 5.69403 81.5061 5.80106 81.9033 6.0151C82.3028 6.22676 82.6108 6.52285 82.8272 6.90337C83.0437 7.28151 83.1519 7.72149 83.1519 8.2233C83.1519 8.72748 83.0413 9.16865 82.8201 9.54679C82.6013 9.92255 82.2886 10.2139 81.8819 10.4208C81.4752 10.6277 80.9924 10.7312 80.4335 10.7312H78.5714V9.33988H80.1053C80.3717 9.33988 80.5941 9.29351 80.7724 9.20076C80.9532 9.108 81.0899 8.97839 81.1827 8.81191C81.2754 8.64306 81.3218 8.44685 81.3218 8.2233C81.3218 7.99736 81.2754 7.80235 81.1827 7.63825C81.0899 7.47177 80.9532 7.34335 80.7724 7.25297C80.5917 7.1626 80.3693 7.11741 80.1053 7.11741H79.2349V13H77.4691ZM85.9416 7.12812V5.69403H92.1167V7.12812H89.9013V13H88.1605V7.12812H85.9416ZM99.5412 9.34702C99.5412 10.1509 99.3867 10.8322 99.0775 11.3911C98.7683 11.95 98.3497 12.3745 97.8218 12.6647C97.2962 12.9548 96.7064 13.0999 96.0524 13.0999C95.396 13.0999 94.805 12.9536 94.2794 12.6611C93.7538 12.3686 93.3364 11.9441 93.0272 11.3876C92.7204 10.8287 92.567 10.1485 92.567 9.34702C92.567 8.54317 92.7204 7.8618 93.0272 7.30292C93.3364 6.74403 93.7538 6.31951 94.2794 6.02937C94.805 5.73922 95.396 5.59415 96.0524 5.59415C96.7064 5.59415 97.2962 5.73922 97.8218 6.02937C98.3497 6.31951 98.7683 6.74403 99.0775 7.30292C99.3867 7.8618 99.5412 8.54317 99.5412 9.34702ZM97.7362 9.34702C97.7362 8.87137 97.6684 8.46945 97.5328 8.14125C97.3996 7.81305 97.207 7.56452 96.9549 7.39567C96.7052 7.22681 96.4043 7.14238 96.0524 7.14238C95.7028 7.14238 95.4019 7.22681 95.1498 7.39567C94.8977 7.56452 94.7039 7.81305 94.5683 8.14125C94.4352 8.46945 94.3686 8.87137 94.3686 9.34702C94.3686 9.82267 94.4352 10.2246 94.5683 10.5528C94.7039 10.881 94.8977 11.1295 95.1498 11.2984C95.4019 11.4672 95.7028 11.5516 96.0524 11.5516C96.4043 11.5516 96.7052 11.4672 96.9549 11.2984C97.207 11.1295 97.3996 10.881 97.5328 10.5528C97.6684 10.2246 97.7362 9.82267 97.7362 9.34702ZM105.27 13.9132V4.78079H105.855V13.9132H105.27ZM106.68 7.8844C106.656 7.62279 106.55 7.41945 106.362 7.27438C106.177 7.12693 105.911 7.0532 105.567 7.0532C105.338 7.0532 105.148 7.08293 104.996 7.14238C104.844 7.20184 104.729 7.28389 104.653 7.38853C104.577 7.4908 104.538 7.60852 104.536 7.7417C104.531 7.8511 104.552 7.94742 104.6 8.03066C104.65 8.1139 104.721 8.18762 104.814 8.25184C104.909 8.31367 105.023 8.36837 105.156 8.41593C105.289 8.4635 105.439 8.50512 105.606 8.54079L106.234 8.68349C106.595 8.76197 106.914 8.86661 107.19 8.99742C107.468 9.12822 107.701 9.28399 107.889 9.46474C108.079 9.64549 108.223 9.85358 108.321 10.089C108.418 10.3245 108.468 10.5885 108.47 10.881C108.468 11.3424 108.351 11.7383 108.121 12.0689C107.89 12.3995 107.558 12.6528 107.125 12.8288C106.695 13.0048 106.175 13.0928 105.567 13.0928C104.955 13.0928 104.423 13.0012 103.968 12.8181C103.514 12.6349 103.161 12.3567 102.909 11.9833C102.657 11.6099 102.527 11.1378 102.52 10.5671H104.211C104.225 10.8025 104.288 10.9987 104.4 11.1557C104.512 11.3126 104.665 11.4315 104.86 11.5124C105.058 11.5933 105.286 11.6337 105.545 11.6337C105.783 11.6337 105.985 11.6016 106.152 11.5374C106.32 11.4732 106.45 11.384 106.54 11.2698C106.631 11.1557 106.677 11.0249 106.68 10.8774C106.677 10.7395 106.634 10.6218 106.551 10.5242C106.468 10.4244 106.339 10.3387 106.166 10.2674C105.995 10.1937 105.776 10.1259 105.509 10.0641L104.746 9.88569C104.113 9.74062 103.615 9.50636 103.251 9.18292C102.887 8.8571 102.707 8.41712 102.709 7.86299C102.707 7.41113 102.828 7.01515 103.073 6.67506C103.318 6.33497 103.657 6.0698 104.09 5.87954C104.522 5.68928 105.016 5.59415 105.57 5.59415C106.136 5.59415 106.627 5.69047 107.043 5.8831C107.462 6.07336 107.787 6.34092 108.017 6.68576C108.248 7.03061 108.366 7.43015 108.37 7.8844H106.68ZM112.726 5.69403V13H110.964V7.34216H110.921L109.287 8.34102V6.81419L111.089 5.69403H112.726ZM117.092 5.59415C117.491 5.59415 117.873 5.65955 118.237 5.79035C118.601 5.91878 118.925 6.1245 119.211 6.40751C119.496 6.68814 119.721 7.05796 119.885 7.51696C120.049 7.97596 120.131 8.53604 120.131 9.19719C120.134 9.80602 120.062 10.3518 119.917 10.8346C119.772 11.315 119.564 11.7241 119.293 12.0618C119.024 12.3995 118.701 12.6575 118.323 12.8359C117.944 13.0119 117.522 13.0999 117.056 13.0999C116.542 13.0999 116.089 13.0012 115.697 12.8038C115.307 12.604 114.994 12.3353 114.759 11.9976C114.526 11.6599 114.387 11.2817 114.341 10.8631H116.079C116.133 11.1057 116.249 11.2889 116.425 11.4125C116.601 11.5338 116.811 11.5945 117.056 11.5945C117.503 11.5945 117.837 11.4006 118.059 11.013C118.28 10.6253 118.39 10.0985 118.39 9.43263H118.348C118.245 9.65143 118.1 9.83931 117.912 9.99628C117.727 10.1532 117.512 10.2733 117.267 10.3566C117.022 10.4398 116.764 10.4814 116.492 10.4814C116.055 10.4814 115.668 10.3816 115.333 10.1818C115 9.98201 114.739 9.70732 114.548 9.35772C114.36 9.00812 114.265 8.60857 114.263 8.15908C114.26 7.6549 114.378 7.21016 114.616 6.82489C114.854 6.43724 115.186 6.1352 115.611 5.91878C116.037 5.69998 116.531 5.59177 117.092 5.59415ZM117.102 6.94975C116.884 6.94975 116.689 7.00088 116.517 7.10314C116.349 7.20541 116.215 7.34335 116.118 7.51696C116.02 7.69057 115.973 7.88559 115.975 8.10201C115.978 8.31843 116.026 8.51344 116.121 8.68705C116.219 8.86067 116.351 8.9986 116.517 9.10087C116.686 9.20313 116.879 9.25427 117.095 9.25427C117.257 9.25427 117.407 9.22454 117.545 9.16508C117.683 9.10563 117.803 9.02358 117.905 8.91893C118.007 8.81191 118.087 8.68824 118.144 8.54793C118.204 8.40761 118.232 8.25778 118.23 8.09844C118.227 7.88678 118.177 7.69414 118.08 7.52053C117.982 7.34691 117.848 7.20898 117.677 7.10671C117.508 7.00207 117.317 6.94975 117.102 6.94975ZM124.122 13.1784C123.485 13.1784 122.935 13.0273 122.474 12.7253C122.013 12.4209 121.657 11.9845 121.407 11.4161C121.158 10.8453 121.034 10.1592 121.036 9.35772C121.039 8.55625 121.164 7.87607 121.411 7.31719C121.661 6.75592 122.015 6.32903 122.474 6.0365C122.935 5.7416 123.485 5.59415 124.122 5.59415C124.76 5.59415 125.309 5.7416 125.77 6.0365C126.234 6.32903 126.591 6.75592 126.841 7.31719C127.09 7.87845 127.214 8.55863 127.212 9.35772C127.212 10.1616 127.087 10.8489 126.837 11.4197C126.587 11.9904 126.232 12.4268 125.77 12.7289C125.311 13.0285 124.762 13.1784 124.122 13.1784ZM124.122 11.7336C124.503 11.7336 124.811 11.5398 125.046 11.1521C125.282 10.7621 125.398 10.1639 125.396 9.35772C125.396 8.82975 125.342 8.39453 125.235 8.05206C125.128 7.70722 124.98 7.45037 124.789 7.28151C124.599 7.11266 124.377 7.02823 124.122 7.02823C123.744 7.02823 123.438 7.21968 123.205 7.60258C122.972 7.98309 122.855 8.56814 122.852 9.35772C122.85 9.89282 122.901 10.3364 123.006 10.6883C123.113 11.0403 123.262 11.3031 123.455 11.4767C123.648 11.648 123.87 11.7336 124.122 11.7336ZM131.244 13.1784C130.607 13.1784 130.058 13.0273 129.596 12.7253C129.135 12.4209 128.779 11.9845 128.53 11.4161C128.28 10.8453 128.156 10.1592 128.159 9.35772C128.161 8.55625 128.286 7.87607 128.533 7.31719C128.783 6.75592 129.137 6.32903 129.596 6.0365C130.058 5.7416 130.607 5.59415 131.244 5.59415C131.882 5.59415 132.431 5.7416 132.893 6.0365C133.356 6.32903 133.713 6.75592 133.963 7.31719C134.212 7.87845 134.336 8.55863 134.334 9.35772C134.334 10.1616 134.209 10.8489 133.959 11.4197C133.709 11.9904 133.354 12.4268 132.893 12.7289C132.434 13.0285 131.884 13.1784 131.244 13.1784ZM131.244 11.7336C131.625 11.7336 131.933 11.5398 132.168 11.1521C132.404 10.7621 132.52 10.1639 132.518 9.35772C132.518 8.82975 132.464 8.39453 132.357 8.05206C132.25 7.70722 132.102 7.45037 131.912 7.28151C131.721 7.11266 131.499 7.02823 131.244 7.02823C130.866 7.02823 130.561 7.21968 130.328 7.60258C130.095 7.98309 129.977 8.56814 129.974 9.35772C129.972 9.89282 130.023 10.3364 130.128 10.6883C130.235 11.0403 130.385 11.3031 130.577 11.4767C130.77 11.648 130.992 11.7336 131.244 11.7336ZM138.367 13.1784C137.729 13.1784 137.18 13.0273 136.719 12.7253C136.257 12.4209 135.902 11.9845 135.652 11.4161C135.402 10.8453 135.279 10.1592 135.281 9.35772C135.283 8.55625 135.408 7.87607 135.655 7.31719C135.905 6.75592 136.26 6.32903 136.719 6.0365C137.18 5.7416 137.729 5.59415 138.367 5.59415C139.004 5.59415 139.553 5.7416 140.015 6.0365C140.479 6.32903 140.835 6.75592 141.085 7.31719C141.335 7.87845 141.458 8.55863 141.456 9.35772C141.456 10.1616 141.331 10.8489 141.081 11.4197C140.832 11.9904 140.476 12.4268 140.015 12.7289C139.556 13.0285 139.006 13.1784 138.367 13.1784ZM138.367 11.7336C138.747 11.7336 139.055 11.5398 139.291 11.1521C139.526 10.7621 139.643 10.1639 139.64 9.35772C139.64 8.82975 139.587 8.39453 139.48 8.05206C139.373 7.70722 139.224 7.45037 139.034 7.28151C138.844 7.11266 138.621 7.02823 138.367 7.02823C137.989 7.02823 137.683 7.21968 137.45 7.60258C137.217 7.98309 137.099 8.56814 137.097 9.35772C137.094 9.89282 137.145 10.3364 137.25 10.6883C137.357 11.0403 137.507 11.3031 137.7 11.4767C137.892 11.648 138.115 11.7336 138.367 11.7336Z" fill="#FE7207"/>
<circle cx="20" cy="41" r="7" fill="#38CB89"/>
<circle cx="20" cy="41" r="6.41667" stroke="white" stroke-opacity="0.6" stroke-width="1.16667"/>
<path fill-rule="evenodd" clip-rule="evenodd" d="M22.3681 39.2048L19.4804 42.6878L22.3681 39.2048Z" fill="#FE7207"/>
<path d="M22.3681 39.2048L19.4804 42.6878" stroke="white" stroke-width="1.50516" stroke-linecap="round" stroke-linejoin="round"/>
<path fill-rule="evenodd" clip-rule="evenodd" d="M17.2998 41.3486L19.4813 42.6871L17.2998 41.3486Z" fill="#FE7207"/>
<path d="M17.2998 41.3486L19.4813 42.6871" stroke="white" stroke-width="1.50516" stroke-linecap="round" stroke-linejoin="round"/>
</svg>
