<svg width="131" height="64" viewBox="0 0 131 64" fill="none" xmlns="http://www.w3.org/2000/svg">
<path d="M4.16965 61L0 58.2294C0.197089 57.9339 19.8136 29.0886 47.8125 40.7683C58.0365 45.035 77.074 52.9714 91.677 36.5509C93.2004 34.7304 94.6133 32.8204 95.9083 30.8311C101.809 22.273 109.877 10.544 130.614 11.3752L130.411 16.3808C112.451 15.6666 105.855 25.2345 100.035 33.6757C98.6171 35.8281 97.0726 37.8942 95.4094 39.8632C78.4351 58.9497 56.4413 49.7822 45.8662 45.3738C21.6613 35.2826 4.3421 60.7353 4.16965 61Z" fill="#FCF7EC"/>
<path d="M30.1409 47.7171C28.8987 47.7179 27.6843 47.3502 26.6512 46.6606C25.6181 45.971 24.8128 44.9905 24.3371 43.843C23.8614 42.6956 23.7367 41.4329 23.9789 40.2146C24.221 38.9963 24.819 37.8773 25.6973 36.999C26.5757 36.1207 27.6947 35.5225 28.913 35.2804C30.1313 35.0383 31.394 35.163 32.5415 35.6387C33.6889 36.1144 34.6694 36.9197 35.359 37.9528C36.0486 38.9859 36.4163 40.2003 36.4155 41.4424C36.4135 43.1059 35.7517 44.7007 34.5754 45.877C33.3992 47.0533 31.8044 47.715 30.1409 47.7171Z" fill="#FE7207"/>
<path d="M110.503 23.8585C109.261 23.8585 108.047 23.4903 107.015 22.8004C105.982 22.1105 105.177 21.1299 104.702 19.9826C104.227 18.8354 104.103 17.573 104.345 16.355C104.587 15.1371 105.185 14.0184 106.063 13.1403C106.941 12.2623 108.06 11.6643 109.278 11.422C110.496 11.1798 111.758 11.3041 112.905 11.7793C114.053 12.2545 115.033 13.0593 115.723 14.0918C116.413 15.1243 116.781 16.3382 116.781 17.58C116.78 19.2449 116.118 20.8412 114.941 22.0184C113.764 23.1957 112.168 23.8575 110.503 23.8585Z" fill="#38CB89"/>
<rect x="16.3242" width="84.1328" height="17.58" rx="4" fill="#38CB89" fill-opacity="0.14"/>
<path d="M23.156 12.2557V4.94977H26.174C26.721 4.94977 27.193 5.04847 27.5902 5.24586C27.9898 5.44088 28.2977 5.72151 28.5142 6.08776C28.7306 6.45163 28.8388 6.88328 28.8388 7.38271C28.8388 7.88928 28.7282 8.31974 28.507 8.6741C28.2858 9.02608 27.9719 9.29482 27.5652 9.48033C27.1586 9.66345 26.677 9.75501 26.1205 9.75501H24.2119V8.36374H25.7923C26.0586 8.36374 26.281 8.32926 26.4594 8.26029C26.6401 8.18894 26.7768 8.08192 26.8696 7.93922C26.9623 7.79415 27.0087 7.60865 27.0087 7.38271C27.0087 7.15678 26.9623 6.97009 26.8696 6.82264C26.7768 6.67281 26.6401 6.56103 26.4594 6.48731C26.2786 6.4112 26.0562 6.37315 25.7923 6.37315H24.9218V12.2557H23.156ZM27.2691 8.91668L29.0885 12.2557H27.1621L25.3784 8.91668H27.2691ZM31.5732 4.94977V12.2557H29.8073V4.94977H31.5732ZM36.6308 7.14013C36.607 6.87853 36.5012 6.67519 36.3133 6.53011C36.1278 6.38266 35.8626 6.30894 35.5178 6.30894C35.2895 6.30894 35.0992 6.33867 34.947 6.39812C34.7948 6.45758 34.6806 6.53963 34.6045 6.64427C34.5284 6.74653 34.4892 6.86426 34.4868 6.99744C34.4821 7.10684 34.5035 7.20316 34.551 7.2864C34.601 7.36963 34.6723 7.44336 34.7651 7.50757C34.8602 7.56941 34.9744 7.62411 35.1075 7.67167C35.2407 7.71924 35.3905 7.76086 35.557 7.79653L36.1849 7.93922C36.5464 8.01771 36.8651 8.12235 37.1409 8.25315C37.4192 8.38396 37.6523 8.53973 37.8401 8.72048C38.0304 8.90122 38.1743 9.10932 38.2718 9.34477C38.3693 9.58021 38.4192 9.8442 38.4216 10.1367C38.4192 10.5981 38.3027 10.9941 38.072 11.3247C37.8413 11.6552 37.5096 11.9085 37.0767 12.0845C36.6463 12.2605 36.1266 12.3485 35.5178 12.3485C34.9066 12.3485 34.3738 12.2569 33.9196 12.0738C33.4654 11.8907 33.1122 11.6124 32.8601 11.239C32.608 10.8657 32.4784 10.3936 32.4713 9.82279H34.1622C34.1765 10.0582 34.2395 10.2544 34.3513 10.4114C34.463 10.5684 34.6164 10.6873 34.8114 10.7681C35.0088 10.849 35.2372 10.8894 35.4964 10.8894C35.7342 10.8894 35.9364 10.8573 36.1028 10.7931C36.2717 10.7289 36.4013 10.6397 36.4917 10.5256C36.582 10.4114 36.6284 10.2806 36.6308 10.1332C36.6284 9.99522 36.5856 9.87749 36.5024 9.77999C36.4191 9.6801 36.2907 9.59448 36.1171 9.52313C35.9459 9.44941 35.7271 9.38163 35.4607 9.31979L34.6973 9.14143C34.0647 8.99635 33.5664 8.7621 33.2026 8.43866C32.8387 8.11284 32.6579 7.67286 32.6603 7.11873C32.6579 6.66686 32.7792 6.27089 33.0242 5.9308C33.2692 5.59071 33.6081 5.32553 34.0409 5.13527C34.4737 4.94501 34.9672 4.84989 35.5214 4.84989C36.0874 4.84989 36.5785 4.9462 36.9947 5.13884C37.4132 5.3291 37.7379 5.59665 37.9686 5.9415C38.1993 6.28634 38.317 6.68589 38.3217 7.14013H36.6308ZM39.3135 12.2557V4.94977H44.4077V6.38385H41.0793V7.88215H44.1472V9.31979H41.0793V10.8217H44.4077V12.2557H39.3135ZM47.4328 6.38385V4.94977H53.6079V6.38385H51.3926V12.2557H49.6517V6.38385H47.4328ZM61.0325 8.60275C61.0325 9.4066 60.8779 10.088 60.5687 10.6469C60.2595 11.2057 59.841 11.6303 59.313 11.9204C58.7874 12.2106 58.1976 12.3556 57.5436 12.3556C56.8872 12.3556 56.2962 12.2094 55.7706 11.9168C55.245 11.6243 54.8276 11.1998 54.5185 10.6433C54.2117 10.0844 54.0583 9.40422 54.0583 8.60275C54.0583 7.79891 54.2117 7.11754 54.5185 6.55865C54.8276 5.99977 55.245 5.57525 55.7706 5.2851C56.2962 4.99496 56.8872 4.84989 57.5436 4.84989C58.1976 4.84989 58.7874 4.99496 59.313 5.2851C59.841 5.57525 60.2595 5.99977 60.5687 6.55865C60.8779 7.11754 61.0325 7.79891 61.0325 8.60275ZM59.2274 8.60275C59.2274 8.12711 59.1596 7.72518 59.0241 7.39698C58.8909 7.06879 58.6982 6.82026 58.4461 6.6514C58.1964 6.48255 57.8956 6.39812 57.5436 6.39812C57.194 6.39812 56.8931 6.48255 56.6411 6.6514C56.389 6.82026 56.1951 7.06879 56.0596 7.39698C55.9264 7.72518 55.8598 8.12711 55.8598 8.60275C55.8598 9.0784 55.9264 9.48033 56.0596 9.80852C56.1951 10.1367 56.389 10.3852 56.6411 10.5541C56.8931 10.723 57.194 10.8074 57.5436 10.8074C57.8956 10.8074 58.1964 10.723 58.4461 10.5541C58.6982 10.3852 58.8909 10.1367 59.0241 9.80852C59.1596 9.48033 59.2274 9.0784 59.2274 8.60275ZM66.7617 13.169V4.03653H67.3467V13.169H66.7617ZM68.1708 7.14013C68.147 6.87853 68.0412 6.67519 67.8533 6.53011C67.6678 6.38266 67.4026 6.30894 67.0578 6.30894C66.8294 6.30894 66.6392 6.33867 66.487 6.39812C66.3348 6.45758 66.2206 6.53963 66.1445 6.64427C66.0684 6.74653 66.0292 6.86426 66.0268 6.99744C66.022 7.10684 66.0434 7.20316 66.091 7.2864C66.1409 7.36963 66.2123 7.44336 66.305 7.50757C66.4002 7.56941 66.5143 7.62411 66.6475 7.67167C66.7807 7.71924 66.9305 7.76086 67.097 7.79653L67.7249 7.93922C68.0864 8.01771 68.405 8.12235 68.6809 8.25315C68.9592 8.38396 69.1922 8.53973 69.3801 8.72048C69.5704 8.90122 69.7143 9.10932 69.8118 9.34477C69.9093 9.58021 69.9592 9.8442 69.9616 10.1367C69.9592 10.5981 69.8427 10.9941 69.612 11.3247C69.3813 11.6552 69.0495 11.9085 68.6167 12.0845C68.1862 12.2605 67.6666 12.3485 67.0578 12.3485C66.4466 12.3485 65.9138 12.2569 65.4596 12.0738C65.0053 11.8907 64.6522 11.6124 64.4001 11.239C64.148 10.8657 64.0184 10.3936 64.0112 9.82279H65.7022C65.7164 10.0582 65.7795 10.2544 65.8912 10.4114C66.003 10.5684 66.1564 10.6873 66.3514 10.7681C66.5488 10.849 66.7771 10.8894 67.0364 10.8894C67.2742 10.8894 67.4763 10.8573 67.6428 10.7931C67.8117 10.7289 67.9413 10.6397 68.0317 10.5256C68.122 10.4114 68.1684 10.2806 68.1708 10.1332C68.1684 9.99522 68.1256 9.87749 68.0424 9.77999C67.9591 9.6801 67.8307 9.59448 67.6571 9.52313C67.4858 9.44941 67.267 9.38163 67.0007 9.31979L66.2373 9.14143C65.6047 8.99635 65.1064 8.7621 64.7425 8.43866C64.3787 8.11284 64.1979 7.67286 64.2003 7.11873C64.1979 6.66686 64.3192 6.27089 64.5642 5.9308C64.8091 5.59071 65.148 5.32553 65.5809 5.13527C66.0137 4.94501 66.5072 4.84989 67.0613 4.84989C67.6273 4.84989 68.1185 4.9462 68.5346 5.13884C68.9532 5.3291 69.2779 5.59665 69.5085 5.9415C69.7392 6.28634 69.857 6.68589 69.8617 7.14013H68.1708ZM74.2175 4.94977V12.2557H72.4552V6.59789H72.4124L70.7785 7.59676V6.06992L72.58 4.94977H74.2175ZM78.6865 12.3556C78.1181 12.3556 77.6103 12.2653 77.1632 12.0845C76.7185 11.9014 76.3689 11.654 76.1144 11.3425C75.8623 11.0286 75.7363 10.6742 75.7363 10.2794C75.7363 9.97738 75.8088 9.70031 75.9539 9.44822C76.099 9.19613 76.2952 8.98684 76.5425 8.82036C76.7922 8.65151 77.0705 8.5433 77.3773 8.49573V8.43866C76.9753 8.36493 76.6459 8.17824 76.3891 7.87858C76.1346 7.57892 76.0074 7.22813 76.0074 6.82621C76.0074 6.44569 76.1227 6.10679 76.3534 5.80951C76.5865 5.51223 76.904 5.27797 77.3059 5.10674C77.7102 4.9355 78.1704 4.84989 78.6865 4.84989C79.2026 4.84989 79.6616 4.9355 80.0635 5.10674C80.4678 5.27797 80.7853 5.51223 81.016 5.80951C81.249 6.10679 81.3656 6.44569 81.3656 6.82621C81.3656 7.23051 81.236 7.58249 80.9767 7.88215C80.7199 8.17943 80.3929 8.36493 79.9957 8.43866V8.49573C80.3001 8.5433 80.576 8.65151 80.8233 8.82036C81.073 8.98684 81.2704 9.19613 81.4155 9.44822C81.563 9.70031 81.6367 9.97738 81.6367 10.2794C81.6367 10.6742 81.5095 11.0286 81.255 11.3425C81.0005 11.654 80.6509 11.9014 80.2062 12.0845C79.7638 12.2653 79.2573 12.3556 78.6865 12.3556ZM78.6865 11.1035C78.9029 11.1035 79.0932 11.063 79.2573 10.9822C79.4214 10.8989 79.5498 10.7836 79.6425 10.6362C79.7377 10.4887 79.7852 10.3222 79.7852 10.1367C79.7852 9.94646 79.7377 9.77761 79.6425 9.63016C79.5474 9.4827 79.4166 9.36736 79.2501 9.28412C79.086 9.1985 78.8981 9.1557 78.6865 9.1557C78.4772 9.1557 78.2893 9.1985 78.1228 9.28412C77.9564 9.36736 77.8256 9.4827 77.7304 9.63016C77.6353 9.77761 77.5877 9.94646 77.5877 10.1367C77.5877 10.3222 77.6341 10.4887 77.7269 10.6362C77.822 10.7812 77.9516 10.8954 78.1157 10.9786C78.2822 11.0619 78.4724 11.1035 78.6865 11.1035ZM78.6865 7.91069C78.872 7.91069 79.0361 7.87263 79.1788 7.79653C79.3238 7.72043 79.4368 7.61459 79.5177 7.47903C79.6009 7.34347 79.6425 7.19008 79.6425 7.01884C79.6425 6.84761 79.6009 6.69659 79.5177 6.56579C79.4368 6.43498 79.325 6.33272 79.1823 6.25899C79.0396 6.18289 78.8744 6.14484 78.6865 6.14484C78.501 6.14484 78.3357 6.18289 78.1906 6.25899C78.0455 6.33272 77.9326 6.43498 77.8517 6.56579C77.7709 6.69659 77.7304 6.84761 77.7304 7.01884C77.7304 7.19008 77.7709 7.34347 77.8517 7.47903C77.935 7.61222 78.0491 7.71805 78.1942 7.79653C78.3393 7.87263 78.5034 7.91069 78.6865 7.91069ZM85.6428 12.4341C85.0055 12.4341 84.4561 12.2831 83.9947 11.9811C83.5333 11.6766 83.1778 11.2402 82.9281 10.6718C82.6784 10.101 82.5547 9.41492 82.5571 8.61346C82.5595 7.81199 82.6843 7.13181 82.9316 6.57292C83.1814 6.01166 83.5357 5.58476 83.9947 5.29224C84.4561 4.99734 85.0055 4.84989 85.6428 4.84989C86.2802 4.84989 86.8296 4.99734 87.291 5.29224C87.7547 5.58476 88.1115 6.01166 88.3612 6.57292C88.6109 7.13419 88.7346 7.81437 88.7322 8.61346C88.7322 9.4173 88.6073 10.1046 88.3576 10.6754C88.1079 11.2462 87.7523 11.6826 87.291 11.9846C86.832 12.2843 86.2826 12.4341 85.6428 12.4341ZM85.6428 10.9893C86.0234 10.9893 86.3313 10.7955 86.5668 10.4078C86.8022 10.0178 86.9188 9.41968 86.9164 8.61346C86.9164 8.08549 86.8629 7.65027 86.7559 7.3078C86.6488 6.96295 86.5002 6.7061 86.3099 6.53725C86.1197 6.36839 85.8973 6.28397 85.6428 6.28397C85.2647 6.28397 84.9591 6.47541 84.726 6.85831C84.493 7.23883 84.3752 7.82388 84.3729 8.61346C84.3705 9.14856 84.4216 9.5921 84.5263 9.94408C84.6333 10.2961 84.7831 10.5589 84.9757 10.7325C85.1684 10.9037 85.3908 10.9893 85.6428 10.9893ZM92.7651 12.4341C92.1277 12.4341 91.5783 12.2831 91.117 11.9811C90.6556 11.6766 90.3 11.2402 90.0503 10.6718C89.8006 10.101 89.6769 9.41492 89.6793 8.61346C89.6817 7.81199 89.8066 7.13181 90.0539 6.57292C90.3036 6.01166 90.658 5.58476 91.117 5.29224C91.5783 4.99734 92.1277 4.84989 92.7651 4.84989C93.4025 4.84989 93.9518 4.99734 94.4132 5.29224C94.877 5.58476 95.2337 6.01166 95.4834 6.57292C95.7331 7.13419 95.8568 7.81437 95.8544 8.61346C95.8544 9.4173 95.7296 10.1046 95.4799 10.6754C95.2301 11.2462 94.8746 11.6826 94.4132 11.9846C93.9542 12.2843 93.4048 12.4341 92.7651 12.4341ZM92.7651 10.9893C93.1456 10.9893 93.4536 10.7955 93.689 10.4078C93.9245 10.0178 94.041 9.41968 94.0386 8.61346C94.0386 8.08549 93.9851 7.65027 93.8781 7.3078C93.7711 6.96295 93.6224 6.7061 93.4322 6.53725C93.2419 6.36839 93.0196 6.28397 92.7651 6.28397C92.3869 6.28397 92.0813 6.47541 91.8483 6.85831C91.6152 7.23883 91.4975 7.82388 91.4951 8.61346C91.4927 9.14856 91.5439 9.5921 91.6485 9.94408C91.7555 10.2961 91.9054 10.5589 92.098 10.7325C92.2906 10.9037 92.513 10.9893 92.7651 10.9893Z" fill="#38CB89"/>
<circle cx="110" cy="57" r="7" fill="#FE7207"/>
<circle cx="110" cy="57" r="6.41667" stroke="white" stroke-opacity="0.6" stroke-width="1.16667"/>
<path fill-rule="evenodd" clip-rule="evenodd" d="M112.251 55L107.996 59.255L112.251 55Z" fill="#FE7207"/>
<path d="M112.251 55L107.996 59.255" stroke="white" stroke-width="1.50516" stroke-linecap="round" stroke-linejoin="round"/>
<path fill-rule="evenodd" clip-rule="evenodd" d="M107.996 55L112.251 59.255L107.996 55Z" fill="#FE7207"/>
<path d="M107.996 55L112.251 59.255" stroke="white" stroke-width="1.50516" stroke-linecap="round" stroke-linejoin="round"/>
</svg>
