<svg width="154" height="50" viewBox="0 0 154 50" fill="none" xmlns="http://www.w3.org/2000/svg">
<path d="M126.445 49.9993L130.614 47.2287C130.417 46.9332 110.801 18.0879 82.8018 29.7676C72.5778 34.0344 53.5403 41.9707 38.9372 25.5502C37.4139 23.7298 36.0009 21.8197 34.706 19.8304C28.8056 11.2723 20.7373 -0.456701 -9.15527e-05 0.374483L0.20314 5.38014C18.1628 4.66594 24.7591 14.2338 30.5794 22.675C31.9971 24.8274 33.5417 26.8935 35.2049 28.8626C52.1791 47.949 74.173 38.7815 84.748 34.3731C108.953 24.2819 126.272 49.7346 126.445 49.9993Z" fill="#FCF7EC"/>
<path d="M100.471 36.7164C101.714 36.7172 102.928 36.3495 103.961 35.6599C104.994 34.9703 105.8 33.9898 106.275 32.8424C106.751 31.695 106.876 30.4322 106.633 29.2139C106.391 27.9957 105.793 26.8766 104.915 25.9983C104.037 25.12 102.918 24.5219 101.699 24.2797C100.481 24.0376 99.2183 24.1623 98.0708 24.638C96.9234 25.1137 95.9429 25.919 95.2533 26.9521C94.5637 27.9852 94.196 29.1996 94.1968 30.4417C94.1988 32.1052 94.8606 33.7001 96.0369 34.8763C97.2131 36.0526 98.8079 36.7144 100.471 36.7164Z" fill="#FE7207"/>
<path d="M20.1067 12.8579C21.3485 12.8579 22.5624 12.4896 23.5949 11.7997C24.6274 11.1098 25.4321 10.1293 25.9073 8.98203C26.3825 7.83477 26.5069 6.57236 26.2646 5.35443C26.0223 4.13651 25.4244 3.01779 24.5463 2.13972C23.6682 1.26164 22.5495 0.663694 21.3316 0.421434C20.1136 0.179173 18.8512 0.303477 17.704 0.778688C16.5567 1.2539 15.5761 2.05868 14.8862 3.09119C14.1963 4.12369 13.8281 5.3376 13.8281 6.57939C13.8292 8.24425 14.491 9.84058 15.6682 11.0178C16.8454 12.1951 18.4418 12.8569 20.1067 12.8579Z" fill="#38CB89"/>
<rect x="59" width="95" height="18" rx="4" fill="#FCEFEB"/>
<path d="M69.2534 13H66.5529V5.69403H69.2499C69.9943 5.69403 70.6352 5.8403 71.1727 6.13282C71.7125 6.42297 72.1287 6.84154 72.4213 7.38853C72.7138 7.93315 72.86 8.58479 72.86 9.34345C72.86 10.1045 72.7138 10.7585 72.4213 11.3055C72.1311 11.8525 71.7161 12.2723 71.1762 12.5648C70.6364 12.8549 69.9955 13 69.2534 13ZM68.3188 11.4946H69.1857C69.5947 11.4946 69.9408 11.4256 70.2238 11.2877C70.5092 11.1473 70.7244 10.9202 70.8695 10.6063C71.0169 10.29 71.0906 9.86904 71.0906 9.34345C71.0906 8.81786 71.0169 8.39929 70.8695 8.08774C70.722 7.77381 70.5044 7.54788 70.2166 7.40994C69.9312 7.26962 69.5793 7.19946 69.1607 7.19946H68.3188V11.4946ZM73.891 13V5.69403H76.909C77.456 5.69403 77.9281 5.79273 78.3253 5.99013C78.7248 6.18514 79.0328 6.46577 79.2492 6.83202C79.4656 7.1959 79.5738 7.62755 79.5738 8.12698C79.5738 8.63354 79.4632 9.06401 79.2421 9.41836C79.0209 9.77034 78.707 10.0391 78.3003 10.2246C77.8936 10.4077 77.412 10.4993 76.8555 10.4993H74.947V9.108H76.5273C76.7937 9.108 77.016 9.07352 77.1944 9.00455C77.3751 8.9332 77.5119 8.82618 77.6046 8.68349C77.6974 8.53841 77.7438 8.35291 77.7438 8.12698C77.7438 7.90104 77.6974 7.71435 77.6046 7.5669C77.5119 7.41707 77.3751 7.30529 77.1944 7.23157C77.0136 7.15547 76.7913 7.11741 76.5273 7.11741H75.6569V13H73.891ZM78.0042 9.66095L79.8235 13H77.8972L76.1135 9.66095H78.0042ZM87.4381 9.34702C87.4381 10.1509 87.2835 10.8322 86.9743 11.3911C86.6652 11.95 86.2466 12.3745 85.7186 12.6647C85.193 12.9548 84.6032 13.0999 83.9492 13.0999C83.2928 13.0999 82.7018 12.9536 82.1762 12.6611C81.6506 12.3686 81.2332 11.9441 80.9241 11.3876C80.6173 10.8287 80.4639 10.1485 80.4639 9.34702C80.4639 8.54317 80.6173 7.8618 80.9241 7.30292C81.2332 6.74403 81.6506 6.31951 82.1762 6.02937C82.7018 5.73922 83.2928 5.59415 83.9492 5.59415C84.6032 5.59415 85.193 5.73922 85.7186 6.02937C86.2466 6.31951 86.6652 6.74403 86.9743 7.30292C87.2835 7.8618 87.4381 8.54317 87.4381 9.34702ZM85.633 9.34702C85.633 8.87137 85.5652 8.46945 85.4297 8.14125C85.2965 7.81305 85.1038 7.56452 84.8517 7.39567C84.602 7.22681 84.3012 7.14238 83.9492 7.14238C83.5996 7.14238 83.2988 7.22681 83.0467 7.39567C82.7946 7.56452 82.6007 7.81305 82.4652 8.14125C82.332 8.46945 82.2654 8.87137 82.2654 9.34702C82.2654 9.82267 82.332 10.2246 82.4652 10.5528C82.6007 10.881 82.7946 11.1295 83.0467 11.2984C83.2988 11.4672 83.5996 11.5516 83.9492 11.5516C84.3012 11.5516 84.602 11.4672 84.8517 11.2984C85.1038 11.1295 85.2965 10.881 85.4297 10.5528C85.5652 10.2246 85.633 9.82267 85.633 9.34702ZM88.4691 13V5.69403H91.487C92.034 5.69403 92.5061 5.80106 92.9033 6.0151C93.3028 6.22676 93.6108 6.52285 93.8272 6.90337C94.0437 7.28151 94.1519 7.72149 94.1519 8.2233C94.1519 8.72748 94.0413 9.16865 93.8201 9.54679C93.6013 9.92255 93.2886 10.2139 92.8819 10.4208C92.4752 10.6277 91.9924 10.7312 91.4335 10.7312H89.5714V9.33988H91.1053C91.3717 9.33988 91.5941 9.29351 91.7724 9.20076C91.9532 9.108 92.0899 8.97839 92.1827 8.81191C92.2754 8.64306 92.3218 8.44685 92.3218 8.2233C92.3218 7.99736 92.2754 7.80235 92.1827 7.63825C92.0899 7.47177 91.9532 7.34335 91.7724 7.25297C91.5917 7.1626 91.3693 7.11741 91.1053 7.11741H90.2349V13H88.4691ZM98.9714 7.8844C98.9476 7.62279 98.8418 7.41945 98.6539 7.27438C98.4684 7.12693 98.2032 7.0532 97.8584 7.0532C97.6301 7.0532 97.4398 7.08293 97.2876 7.14238C97.1354 7.20184 97.0212 7.28389 96.9451 7.38853C96.869 7.4908 96.8298 7.60852 96.8274 7.7417C96.8226 7.8511 96.844 7.94742 96.8916 8.03066C96.9416 8.1139 97.0129 8.18762 97.1056 8.25184C97.2008 8.31367 97.3149 8.36837 97.4481 8.41593C97.5813 8.4635 97.7311 8.50512 97.8976 8.54079L98.5255 8.68349C98.887 8.76197 99.2056 8.86661 99.4815 8.99742C99.7598 9.12822 99.9928 9.28399 100.181 9.46474C100.371 9.64549 100.515 9.85358 100.612 10.089C100.71 10.3245 100.76 10.5885 100.762 10.881C100.76 11.3424 100.643 11.7383 100.413 12.0689C100.182 12.3995 99.8501 12.6528 99.4173 12.8288C98.9868 13.0048 98.4672 13.0928 97.8584 13.0928C97.2472 13.0928 96.7144 13.0012 96.2602 12.8181C95.8059 12.6349 95.4528 12.3567 95.2007 11.9833C94.9486 11.6099 94.819 11.1378 94.8118 10.5671H96.5028C96.517 10.8025 96.5801 10.9987 96.6918 11.1557C96.8036 11.3126 96.957 11.4315 97.152 11.5124C97.3494 11.5933 97.5777 11.6337 97.837 11.6337C98.0748 11.6337 98.2769 11.6016 98.4434 11.5374C98.6123 11.4732 98.7419 11.384 98.8323 11.2698C98.9226 11.1557 98.969 11.0249 98.9714 10.8774C98.969 10.7395 98.9262 10.6218 98.843 10.5242C98.7597 10.4244 98.6313 10.3387 98.4577 10.2674C98.2864 10.1937 98.0676 10.1259 97.8013 10.0641L97.0379 9.88569C96.4053 9.74062 95.907 9.50636 95.5431 9.18292C95.1793 8.8571 94.9985 8.41712 95.0009 7.86299C94.9985 7.41113 95.1198 7.01515 95.3648 6.67506C95.6097 6.33497 95.9486 6.0698 96.3815 5.87954C96.8143 5.68928 97.3078 5.59415 97.8619 5.59415C98.428 5.59415 98.9191 5.69047 99.3353 5.8831C99.7538 6.07336 100.078 6.34092 100.309 6.68576C100.54 7.03061 100.658 7.43015 100.662 7.8844H98.9714ZM103.573 7.12812V5.69403H109.748V7.12812H107.533V13H105.792V7.12812H103.573ZM117.173 9.34702C117.173 10.1509 117.018 10.8322 116.709 11.3911C116.4 11.95 115.981 12.3745 115.454 12.6647C114.928 12.9548 114.338 13.0999 113.684 13.0999C113.028 13.0999 112.437 12.9536 111.911 12.6611C111.386 12.3686 110.968 11.9441 110.659 11.3876C110.352 10.8287 110.199 10.1485 110.199 9.34702C110.199 8.54317 110.352 7.8618 110.659 7.30292C110.968 6.74403 111.386 6.31951 111.911 6.02937C112.437 5.73922 113.028 5.59415 113.684 5.59415C114.338 5.59415 114.928 5.73922 115.454 6.02937C115.981 6.31951 116.4 6.74403 116.709 7.30292C117.018 7.8618 117.173 8.54317 117.173 9.34702ZM115.368 9.34702C115.368 8.87137 115.3 8.46945 115.165 8.14125C115.031 7.81305 114.839 7.56452 114.587 7.39567C114.337 7.22681 114.036 7.14238 113.684 7.14238C113.334 7.14238 113.034 7.22681 112.782 7.39567C112.529 7.56452 112.336 7.81305 112.2 8.14125C112.067 8.46945 112 8.87137 112 9.34702C112 9.82267 112.067 10.2246 112.2 10.5528C112.336 10.881 112.529 11.1295 112.782 11.2984C113.034 11.4672 113.334 11.5516 113.684 11.5516C114.036 11.5516 114.337 11.4672 114.587 11.2984C114.839 11.1295 115.031 10.881 115.165 10.5528C115.3 10.2246 115.368 9.82267 115.368 9.34702ZM122.902 13.9132V4.78079H123.487V13.9132H122.902ZM124.311 7.8844C124.287 7.62279 124.182 7.41945 123.994 7.27438C123.808 7.12693 123.543 7.0532 123.198 7.0532C122.97 7.0532 122.78 7.08293 122.627 7.14238C122.475 7.20184 122.361 7.28389 122.285 7.38853C122.209 7.4908 122.17 7.60852 122.167 7.7417C122.163 7.8511 122.184 7.94742 122.231 8.03066C122.281 8.1139 122.353 8.18762 122.446 8.25184C122.541 8.31367 122.655 8.36837 122.788 8.41593C122.921 8.4635 123.071 8.50512 123.237 8.54079L123.865 8.68349C124.227 8.76197 124.546 8.86661 124.821 8.99742C125.1 9.12822 125.333 9.28399 125.521 9.46474C125.711 9.64549 125.855 9.85358 125.952 10.089C126.05 10.3245 126.1 10.5885 126.102 10.881C126.1 11.3424 125.983 11.7383 125.752 12.0689C125.522 12.3995 125.19 12.6528 124.757 12.8288C124.327 13.0048 123.807 13.0928 123.198 13.0928C122.587 13.0928 122.054 13.0012 121.6 12.8181C121.146 12.6349 120.793 12.3567 120.541 11.9833C120.288 11.6099 120.159 11.1378 120.152 10.5671H121.843C121.857 10.8025 121.92 10.9987 122.032 11.1557C122.144 11.3126 122.297 11.4315 122.492 11.5124C122.689 11.5933 122.918 11.6337 123.177 11.6337C123.415 11.6337 123.617 11.6016 123.783 11.5374C123.952 11.4732 124.082 11.384 124.172 11.2698C124.263 11.1557 124.309 11.0249 124.311 10.8774C124.309 10.7395 124.266 10.6218 124.183 10.5242C124.1 10.4244 123.971 10.3387 123.798 10.2674C123.626 10.1937 123.408 10.1259 123.141 10.0641L122.378 9.88569C121.745 9.74062 121.247 9.50636 120.883 9.18292C120.519 8.8571 120.338 8.41712 120.341 7.86299C120.338 7.41113 120.46 7.01515 120.705 6.67506C120.95 6.33497 121.289 6.0698 121.721 5.87954C122.154 5.68928 122.648 5.59415 123.202 5.59415C123.768 5.59415 124.259 5.69047 124.675 5.8831C125.094 6.07336 125.418 6.34092 125.649 6.68576C125.88 7.03061 125.997 7.43015 126.002 7.8844H124.311ZM129.73 5.59415C130.13 5.59415 130.511 5.65955 130.875 5.79035C131.239 5.91878 131.564 6.1245 131.849 6.40751C132.135 6.68814 132.359 7.05796 132.523 7.51696C132.687 7.97596 132.769 8.53604 132.769 9.19719C132.772 9.80602 132.701 10.3518 132.555 10.8346C132.41 11.315 132.202 11.7241 131.931 12.0618C131.662 12.3995 131.339 12.6575 130.961 12.8359C130.583 13.0119 130.161 13.0999 129.694 13.0999C129.181 13.0999 128.728 13.0012 128.335 12.8038C127.945 12.604 127.632 12.3353 127.397 11.9976C127.164 11.6599 127.025 11.2817 126.98 10.8631H128.717C128.772 11.1057 128.887 11.2889 129.063 11.4125C129.239 11.5338 129.449 11.5945 129.694 11.5945C130.142 11.5945 130.476 11.4006 130.697 11.013C130.918 10.6253 131.029 10.0985 131.029 9.43263H130.986C130.884 9.65143 130.738 9.83931 130.551 9.99628C130.365 10.1532 130.15 10.2733 129.905 10.3566C129.66 10.4398 129.402 10.4814 129.131 10.4814C128.693 10.4814 128.307 10.3816 127.971 10.1818C127.638 9.98201 127.377 9.70732 127.187 9.35772C126.999 9.00812 126.904 8.60857 126.901 8.15908C126.899 7.6549 127.017 7.21016 127.254 6.82489C127.492 6.43724 127.824 6.1352 128.25 5.91878C128.675 5.69998 129.169 5.59177 129.73 5.59415ZM129.741 6.94975C129.522 6.94975 129.327 7.00088 129.156 7.10314C128.987 7.20541 128.854 7.34335 128.756 7.51696C128.659 7.69057 128.611 7.88559 128.614 8.10201C128.616 8.31843 128.665 8.51344 128.76 8.68705C128.857 8.86067 128.989 8.9986 129.156 9.10087C129.325 9.20313 129.517 9.25427 129.734 9.25427C129.895 9.25427 130.045 9.22454 130.183 9.16508C130.321 9.10563 130.441 9.02358 130.543 8.91893C130.646 8.81191 130.725 8.68824 130.782 8.54793C130.842 8.40761 130.87 8.25778 130.868 8.09844C130.866 7.88678 130.816 7.69414 130.718 7.52053C130.621 7.34691 130.486 7.20898 130.315 7.10671C130.146 7.00207 129.955 6.94975 129.741 6.94975ZM136.76 13.1784C136.123 13.1784 135.574 13.0273 135.112 12.7253C134.651 12.4209 134.295 11.9845 134.046 11.4161C133.796 10.8453 133.672 10.1592 133.675 9.35772C133.677 8.55625 133.802 7.87607 134.049 7.31719C134.299 6.75592 134.653 6.32903 135.112 6.0365C135.574 5.7416 136.123 5.59415 136.76 5.59415C137.398 5.59415 137.947 5.7416 138.409 6.0365C138.872 6.32903 139.229 6.75592 139.479 7.31719C139.729 7.87845 139.852 8.55863 139.85 9.35772C139.85 10.1616 139.725 10.8489 139.475 11.4197C139.226 11.9904 138.87 12.4268 138.409 12.7289C137.95 13.0285 137.4 13.1784 136.76 13.1784ZM136.76 11.7336C137.141 11.7336 137.449 11.5398 137.684 11.1521C137.92 10.7621 138.036 10.1639 138.034 9.35772C138.034 8.82975 137.981 8.39453 137.874 8.05206C137.766 7.70722 137.618 7.45037 137.428 7.28151C137.237 7.11266 137.015 7.02823 136.76 7.02823C136.382 7.02823 136.077 7.21968 135.844 7.60258C135.611 7.98309 135.493 8.56814 135.491 9.35772C135.488 9.89282 135.539 10.3364 135.644 10.6883C135.751 11.0403 135.901 11.3031 136.093 11.4767C136.286 11.648 136.508 11.7336 136.76 11.7336ZM143.883 13.1784C143.245 13.1784 142.696 13.0273 142.235 12.7253C141.773 12.4209 141.418 11.9845 141.168 11.4161C140.918 10.8453 140.795 10.1592 140.797 9.35772C140.799 8.55625 140.924 7.87607 141.172 7.31719C141.421 6.75592 141.776 6.32903 142.235 6.0365C142.696 5.7416 143.245 5.59415 143.883 5.59415C144.52 5.59415 145.069 5.7416 145.531 6.0365C145.995 6.32903 146.351 6.75592 146.601 7.31719C146.851 7.87845 146.974 8.55863 146.972 9.35772C146.972 10.1616 146.847 10.8489 146.597 11.4197C146.348 11.9904 145.992 12.4268 145.531 12.7289C145.072 13.0285 144.522 13.1784 143.883 13.1784ZM143.883 11.7336C144.263 11.7336 144.571 11.5398 144.807 11.1521C145.042 10.7621 145.159 10.1639 145.156 9.35772C145.156 8.82975 145.103 8.39453 144.996 8.05206C144.889 7.70722 144.74 7.45037 144.55 7.28151C144.36 7.11266 144.137 7.02823 143.883 7.02823C143.505 7.02823 143.199 7.21968 142.966 7.60258C142.733 7.98309 142.615 8.56814 142.613 9.35772C142.61 9.89282 142.662 10.3364 142.766 10.6883C142.873 11.0403 143.023 11.3031 143.216 11.4767C143.408 11.648 143.631 11.7336 143.883 11.7336Z" fill="#FE7207"/>
<circle cx="20" cy="41" r="7" fill="#38CB89"/>
<circle cx="20" cy="41" r="6.41667" stroke="white" stroke-opacity="0.6" stroke-width="1.16667"/>
<path fill-rule="evenodd" clip-rule="evenodd" d="M22.3681 39.2052L19.4804 42.6882L22.3681 39.2052Z" fill="#FE7207"/>
<path d="M22.3681 39.2052L19.4804 42.6882" stroke="white" stroke-width="1.50516" stroke-linecap="round" stroke-linejoin="round"/>
<path fill-rule="evenodd" clip-rule="evenodd" d="M17.2998 41.3489L19.4813 42.6874L17.2998 41.3489Z" fill="#FE7207"/>
<path d="M17.2998 41.3489L19.4813 42.6874" stroke="white" stroke-width="1.50516" stroke-linecap="round" stroke-linejoin="round"/>
</svg>
