<svg width="131" height="64" viewBox="0 0 131 64" fill="none" xmlns="http://www.w3.org/2000/svg">
<path d="M4.16965 61.0002L0 58.2296C0.197089 57.934 19.8136 29.0888 47.8125 40.7685C58.0365 45.0352 77.074 52.9716 91.677 36.5511C93.2004 34.7306 94.6133 32.8206 95.9083 30.8313C101.809 22.2732 109.877 10.5442 130.614 11.3753L130.411 16.381C112.451 15.6668 105.855 25.2347 100.035 33.6758C98.6171 35.8283 97.0726 37.8944 95.4094 39.8634C78.4351 58.9499 56.4413 49.7824 45.8662 45.374C21.6613 35.2828 4.3421 60.7354 4.16965 61.0002Z" fill="#FCF7EC"/>
<path d="M30.1409 47.7173C28.8987 47.7181 27.6843 47.3503 26.6512 46.6607C25.6181 45.9711 24.8128 44.9906 24.3371 43.8432C23.8614 42.6958 23.7367 41.4331 23.9789 40.2148C24.221 38.9965 24.819 37.8775 25.6973 36.9991C26.5757 36.1208 27.6947 35.5227 28.913 35.2806C30.1313 35.0385 31.394 35.1632 32.5415 35.6389C33.6889 36.1146 34.6694 36.9199 35.359 37.953C36.0486 38.9861 36.4163 40.2005 36.4155 41.4426C36.4135 43.1061 35.7517 44.7009 34.5754 45.8772C33.3992 47.0535 31.8044 47.7152 30.1409 47.7173Z" fill="#FE7207"/>
<path d="M110.503 23.8584C109.261 23.8584 108.047 23.4901 107.015 22.8002C105.982 22.1103 105.177 21.1298 104.702 19.9825C104.227 18.8353 104.103 17.5728 104.345 16.3549C104.587 15.137 105.185 14.0183 106.063 13.1402C106.941 12.2621 108.06 11.6642 109.278 11.4219C110.496 11.1797 111.758 11.304 112.905 11.7792C114.053 12.2544 115.033 13.0592 115.723 14.0917C116.413 15.1242 116.781 16.3381 116.781 17.5799C116.78 19.2447 116.118 20.8411 114.941 22.0183C113.764 23.1955 112.168 23.8574 110.503 23.8584Z" fill="#38CB89"/>
<rect x="16" width="90" height="18" rx="4" fill="#38CB89" fill-opacity="0.14"/>
<path d="M19.5529 13V5.69403H22.5709C23.1179 5.69403 23.59 5.79273 23.9872 5.99013C24.3867 6.18514 24.6947 6.46577 24.9111 6.83202C25.1275 7.1959 25.2358 7.62755 25.2358 8.12698C25.2358 8.63354 25.1252 9.06401 24.904 9.41836C24.6828 9.77034 24.3689 10.0391 23.9622 10.2246C23.5555 10.4077 23.0739 10.4993 22.5174 10.4993H20.6089V9.108H22.1892C22.4556 9.108 22.678 9.07352 22.8563 9.00455C23.0371 8.9332 23.1738 8.82618 23.2666 8.68349C23.3593 8.53841 23.4057 8.35291 23.4057 8.12698C23.4057 7.90104 23.3593 7.71435 23.2666 7.5669C23.1738 7.41707 23.0371 7.30529 22.8563 7.23157C22.6756 7.15547 22.4532 7.11741 22.1892 7.11741H21.3188V13H19.5529ZM23.6661 9.66095L25.4855 13H23.5591L21.7754 9.66095H23.6661ZM27.9701 5.69403V13H26.2043V5.69403H27.9701ZM33.0278 7.8844C33.004 7.62279 32.8982 7.41945 32.7103 7.27438C32.5248 7.12693 32.2596 7.0532 31.9148 7.0532C31.6864 7.0532 31.4962 7.08293 31.344 7.14238C31.1918 7.20184 31.0776 7.28389 31.0015 7.38853C30.9254 7.4908 30.8862 7.60852 30.8838 7.7417C30.879 7.8511 30.9004 7.94742 30.948 8.03066C30.9979 8.1139 31.0693 8.18762 31.162 8.25184C31.2572 8.31367 31.3713 8.36837 31.5045 8.41593C31.6377 8.4635 31.7875 8.50512 31.954 8.54079L32.5819 8.68349C32.9433 8.76197 33.262 8.86661 33.5379 8.99742C33.8162 9.12822 34.0492 9.28399 34.2371 9.46474C34.4274 9.64549 34.5713 9.85358 34.6688 10.089C34.7663 10.3245 34.8162 10.5885 34.8186 10.881C34.8162 11.3424 34.6997 11.7383 34.469 12.0689C34.2383 12.3995 33.9065 12.6528 33.4737 12.8288C33.0432 13.0048 32.5236 13.0928 31.9148 13.0928C31.3035 13.0928 30.7708 13.0012 30.3166 12.8181C29.8623 12.6349 29.5092 12.3567 29.2571 11.9833C29.005 11.6099 28.8754 11.1378 28.8682 10.5671H30.5592C30.5734 10.8025 30.6365 10.9987 30.7482 11.1557C30.86 11.3126 31.0134 11.4315 31.2084 11.5124C31.4058 11.5933 31.6341 11.6337 31.8934 11.6337C32.1312 11.6337 32.3333 11.6016 32.4998 11.5374C32.6687 11.4732 32.7983 11.384 32.8886 11.2698C32.979 11.1557 33.0254 11.0249 33.0278 10.8774C33.0254 10.7395 32.9826 10.6218 32.8994 10.5242C32.8161 10.4244 32.6877 10.3387 32.5141 10.2674C32.3428 10.1937 32.124 10.1259 31.8577 10.0641L31.0943 9.88569C30.4617 9.74062 29.9634 9.50636 29.5995 9.18292C29.2357 8.8571 29.0549 8.41712 29.0573 7.86299C29.0549 7.41113 29.1762 7.01515 29.4212 6.67506C29.6661 6.33497 30.005 6.0698 30.4379 5.87954C30.8707 5.68928 31.3642 5.59415 31.9183 5.59415C32.4843 5.59415 32.9755 5.69047 33.3916 5.8831C33.8102 6.07336 34.1348 6.34092 34.3655 6.68576C34.5962 7.03061 34.714 7.43015 34.7187 7.8844H33.0278ZM35.7104 13V5.69403H40.8046V7.12812H37.4763V8.62641H40.5442V10.0641H37.4763V11.5659H40.8046V13H35.7104ZM43.8298 7.12812V5.69403H50.0049V7.12812H47.7895V13H46.0487V7.12812H43.8298ZM57.4295 9.34702C57.4295 10.1509 57.2749 10.8322 56.9657 11.3911C56.6565 11.95 56.238 12.3745 55.71 12.6647C55.1844 12.9548 54.5946 13.0999 53.9406 13.0999C53.2842 13.0999 52.6932 12.9536 52.1676 12.6611C51.642 12.3686 51.2246 11.9441 50.9154 11.3876C50.6086 10.8287 50.4553 10.1485 50.4553 9.34702C50.4553 8.54317 50.6086 7.8618 50.9154 7.30292C51.2246 6.74403 51.642 6.31951 52.1676 6.02937C52.6932 5.73922 53.2842 5.59415 53.9406 5.59415C54.5946 5.59415 55.1844 5.73922 55.71 6.02937C56.238 6.31951 56.6565 6.74403 56.9657 7.30292C57.2749 7.8618 57.4295 8.54317 57.4295 9.34702ZM55.6244 9.34702C55.6244 8.87137 55.5566 8.46945 55.421 8.14125C55.2878 7.81305 55.0952 7.56452 54.8431 7.39567C54.5934 7.22681 54.2925 7.14238 53.9406 7.14238C53.591 7.14238 53.2901 7.22681 53.038 7.39567C52.7859 7.56452 52.5921 7.81305 52.4565 8.14125C52.3234 8.46945 52.2568 8.87137 52.2568 9.34702C52.2568 9.82267 52.3234 10.2246 52.4565 10.5528C52.5921 10.881 52.7859 11.1295 53.038 11.2984C53.2901 11.4672 53.591 11.5516 53.9406 11.5516C54.2925 11.5516 54.5934 11.4672 54.8431 11.2984C55.0952 11.1295 55.2878 10.881 55.421 10.5528C55.5566 10.2246 55.6244 9.82267 55.6244 9.34702ZM63.1586 13.9132V4.78079H63.7437V13.9132H63.1586ZM64.5678 7.8844C64.544 7.62279 64.4381 7.41945 64.2503 7.27438C64.0648 7.12693 63.7996 7.0532 63.4547 7.0532C63.2264 7.0532 63.0362 7.08293 62.884 7.14238C62.7317 7.20184 62.6176 7.28389 62.5415 7.38853C62.4654 7.4908 62.4261 7.60852 62.4238 7.7417C62.419 7.8511 62.4404 7.94742 62.488 8.03066C62.5379 8.1139 62.6093 8.18762 62.702 8.25184C62.7971 8.31367 62.9113 8.36837 63.0445 8.41593C63.1777 8.4635 63.3275 8.50512 63.494 8.54079L64.1218 8.68349C64.4833 8.76197 64.802 8.86661 65.0779 8.99742C65.3561 9.12822 65.5892 9.28399 65.7771 9.46474C65.9673 9.64549 66.1112 9.85358 66.2087 10.089C66.3062 10.3245 66.3562 10.5885 66.3586 10.881C66.3562 11.3424 66.2397 11.7383 66.009 12.0689C65.7783 12.3995 65.4465 12.6528 65.0137 12.8288C64.5832 13.0048 64.0636 13.0928 63.4547 13.0928C62.8435 13.0928 62.3108 13.0012 61.8566 12.8181C61.4023 12.6349 61.0491 12.3567 60.797 11.9833C60.545 11.6099 60.4153 11.1378 60.4082 10.5671H62.0991C62.1134 10.8025 62.1764 10.9987 62.2882 11.1557C62.4 11.3126 62.5534 11.4315 62.7484 11.5124C62.9458 11.5933 63.1741 11.6337 63.4333 11.6337C63.6712 11.6337 63.8733 11.6016 64.0398 11.5374C64.2086 11.4732 64.3383 11.384 64.4286 11.2698C64.519 11.1557 64.5654 11.0249 64.5678 10.8774C64.5654 10.7395 64.5226 10.6218 64.4393 10.5242C64.3561 10.4244 64.2277 10.3387 64.0541 10.2674C63.8828 10.1937 63.664 10.1259 63.3977 10.0641L62.6342 9.88569C62.0016 9.74062 61.5034 9.50636 61.1395 9.18292C60.7756 8.8571 60.5949 8.41712 60.5973 7.86299C60.5949 7.41113 60.7162 7.01515 60.9611 6.67506C61.2061 6.33497 61.545 6.0698 61.9778 5.87954C62.4107 5.68928 62.9042 5.59415 63.4583 5.59415C64.0243 5.59415 64.5154 5.69047 64.9316 5.8831C65.3502 6.07336 65.6748 6.34092 65.9055 6.68576C66.1362 7.03061 66.2539 7.43015 66.2587 7.8844H64.5678ZM67.2361 13V11.73L69.901 9.39696C70.1007 9.21621 70.2708 9.05093 70.4111 8.9011C70.5514 8.74889 70.6584 8.59668 70.7322 8.44447C70.8059 8.28989 70.8427 8.12222 70.8427 7.94147C70.8427 7.73932 70.7987 7.5669 70.7108 7.42421C70.6228 7.27913 70.5015 7.16736 70.3469 7.08887C70.1923 7.01039 70.0151 6.97115 69.8153 6.97115C69.6132 6.97115 69.436 7.01277 69.2838 7.09601C69.1316 7.17687 69.0127 7.29459 68.9271 7.44918C68.8438 7.60376 68.8022 7.79165 68.8022 8.01282H67.1291C67.1291 7.51577 67.2409 7.0865 67.4645 6.725C67.688 6.36351 68.0019 6.08526 68.4062 5.89024C68.8129 5.69284 69.285 5.59415 69.8225 5.59415C70.3766 5.59415 70.8582 5.6869 71.2673 5.8724C71.6763 6.05791 71.9926 6.31713 72.2162 6.65009C72.4421 6.98066 72.5551 7.36475 72.5551 7.80235C72.5551 8.0806 72.4992 8.35648 72.3874 8.62998C72.2756 8.90347 72.0747 9.20551 71.7845 9.53609C71.4968 9.86666 71.0877 10.2626 70.5574 10.724L69.6834 11.5302V11.5766H72.6443V13H67.2361ZM76.4391 13.0999C75.9063 13.0999 75.4331 13.0036 75.0192 12.8109C74.6054 12.6183 74.2784 12.3531 74.0382 12.0154C73.8004 11.6777 73.6767 11.29 73.6672 10.8524H75.3795C75.3938 11.1212 75.5032 11.3376 75.7077 11.5017C75.9123 11.6634 76.156 11.7443 76.4391 11.7443C76.6602 11.7443 76.8564 11.6955 77.0277 11.598C77.1989 11.5005 77.3333 11.3638 77.4308 11.1878C77.5283 11.0094 77.5759 10.8049 77.5735 10.5742C77.5759 10.3387 77.5271 10.133 77.4272 9.95704C77.3297 9.78105 77.1941 9.6443 77.0205 9.54679C76.8493 9.4469 76.6519 9.39696 76.4284 9.39696C76.2167 9.39458 76.0157 9.44096 75.8255 9.53609C75.6376 9.63122 75.4949 9.76083 75.3974 9.92493L73.8384 9.63241L74.1559 5.69403H78.8435V7.11741H75.6079L75.4402 8.84045H75.483C75.6043 8.6383 75.7993 8.47182 76.068 8.34102C76.3392 8.20784 76.6471 8.14125 76.992 8.14125C77.4296 8.14125 77.8196 8.24351 78.1621 8.44804C78.5069 8.65019 78.7781 8.93082 78.9754 9.28994C79.1752 9.64905 79.2751 10.0605 79.2751 10.5242C79.2751 11.0261 79.1562 11.4708 78.9184 11.8584C78.6829 12.2461 78.3524 12.5505 77.9266 12.7717C77.5033 12.9905 77.0075 13.0999 76.4391 13.0999ZM83.2661 13.1784C82.6287 13.1784 82.0794 13.0273 81.618 12.7253C81.1566 12.4209 80.801 11.9845 80.5513 11.4161C80.3016 10.8453 80.1779 10.1592 80.1803 9.35772C80.1827 8.55625 80.3076 7.87607 80.5549 7.31719C80.8046 6.75592 81.159 6.32903 81.618 6.0365C82.0794 5.7416 82.6287 5.59415 83.2661 5.59415C83.9035 5.59415 84.4528 5.7416 84.9142 6.0365C85.378 6.32903 85.7347 6.75592 85.9844 7.31719C86.2341 7.87845 86.3578 8.55863 86.3554 9.35772C86.3554 10.1616 86.2306 10.8489 85.9809 11.4197C85.7311 11.9904 85.3756 12.4268 84.9142 12.7289C84.4552 13.0285 83.9058 13.1784 83.2661 13.1784ZM83.2661 11.7336C83.6466 11.7336 83.9546 11.5398 84.19 11.1521C84.4255 10.7621 84.542 10.1639 84.5396 9.35772C84.5396 8.82975 84.4861 8.39453 84.3791 8.05206C84.2721 7.70722 84.1235 7.45037 83.9332 7.28151C83.7429 7.11266 83.5206 7.02823 83.2661 7.02823C82.888 7.02823 82.5824 7.21968 82.3493 7.60258C82.1162 7.98309 81.9985 8.56814 81.9961 9.35772C81.9937 9.89282 82.0449 10.3364 82.1495 10.6883C82.2565 11.0403 82.4064 11.3031 82.599 11.4767C82.7916 11.648 83.014 11.7336 83.2661 11.7336ZM90.3883 13.1784C89.751 13.1784 89.2016 13.0273 88.7402 12.7253C88.2788 12.4209 87.9233 11.9845 87.6736 11.4161C87.4239 10.8453 87.3002 10.1592 87.3026 9.35772C87.305 8.55625 87.4298 7.87607 87.6772 7.31719C87.9269 6.75592 88.2812 6.32903 88.7402 6.0365C89.2016 5.7416 89.751 5.59415 90.3883 5.59415C91.0257 5.59415 91.5751 5.7416 92.0365 6.0365C92.5002 6.32903 92.857 6.75592 93.1067 7.31719C93.3564 7.87845 93.4801 8.55863 93.4777 9.35772C93.4777 10.1616 93.3528 10.8489 93.1031 11.4197C92.8534 11.9904 92.4979 12.4268 92.0365 12.7289C91.5775 13.0285 91.0281 13.1784 90.3883 13.1784ZM90.3883 11.7336C90.7689 11.7336 91.0769 11.5398 91.3123 11.1521C91.5477 10.7621 91.6643 10.1639 91.6619 9.35772C91.6619 8.82975 91.6084 8.39453 91.5014 8.05206C91.3943 7.70722 91.2457 7.45037 91.0554 7.28151C90.8652 7.11266 90.6428 7.02823 90.3883 7.02823C90.0102 7.02823 89.7046 7.21968 89.4715 7.60258C89.2385 7.98309 89.1207 8.56814 89.1184 9.35772C89.116 9.89282 89.1671 10.3364 89.2718 10.6883C89.3788 11.0403 89.5286 11.3031 89.7213 11.4767C89.9139 11.648 90.1363 11.7336 90.3883 11.7336ZM97.5106 13.1784C96.8732 13.1784 96.3239 13.0273 95.8625 12.7253C95.4011 12.4209 95.0455 11.9845 94.7958 11.4161C94.5461 10.8453 94.4224 10.1592 94.4248 9.35772C94.4272 8.55625 94.5521 7.87607 94.7994 7.31719C95.0491 6.75592 95.4035 6.32903 95.8625 6.0365C96.3239 5.7416 96.8732 5.59415 97.5106 5.59415C98.148 5.59415 98.6973 5.7416 99.1587 6.0365C99.6225 6.32903 99.9792 6.75592 100.229 7.31719C100.479 7.87845 100.602 8.55863 100.6 9.35772C100.6 10.1616 100.475 10.8489 100.225 11.4197C99.9756 11.9904 99.6201 12.4268 99.1587 12.7289C98.6997 13.0285 98.1503 13.1784 97.5106 13.1784ZM97.5106 11.7336C97.8911 11.7336 98.1991 11.5398 98.4345 11.1521C98.67 10.7621 98.7865 10.1639 98.7841 9.35772C98.7841 8.82975 98.7306 8.39453 98.6236 8.05206C98.5166 7.70722 98.368 7.45037 98.1777 7.28151C97.9874 7.11266 97.7651 7.02823 97.5106 7.02823C97.1325 7.02823 96.8268 7.21968 96.5938 7.60258C96.3607 7.98309 96.243 8.56814 96.2406 9.35772C96.2382 9.89282 96.2894 10.3364 96.394 10.6883C96.501 11.0403 96.6509 11.3031 96.8435 11.4767C97.0361 11.648 97.2585 11.7336 97.5106 11.7336Z" fill="#38CB89"/>
<circle cx="110" cy="57" r="7" fill="#FE7207"/>
<circle cx="110" cy="57" r="6.41667" stroke="white" stroke-opacity="0.6" stroke-width="1.16667"/>
<path fill-rule="evenodd" clip-rule="evenodd" d="M112.251 55L107.996 59.255Z" fill="#FE7207"/>
<path d="M112.251 55L107.996 59.255" stroke="white" stroke-width="1.50516" stroke-linecap="round" stroke-linejoin="round"/>
<path fill-rule="evenodd" clip-rule="evenodd" d="M107.996 55L112.251 59.255Z" fill="#FE7207"/>
<path d="M107.996 55L112.251 59.255" stroke="white" stroke-width="1.50516" stroke-linecap="round" stroke-linejoin="round"/>
</svg>
