<svg width="16" height="16" viewBox="0 0 16 16" fill="none" xmlns="http://www.w3.org/2000/svg">
<rect x="16" y="16" width="16" height="16" rx="8" transform="rotate(-180 16 16)" fill="#377DFF" fill-opacity="0.1"/>
<rect x="15.5" y="15.5" width="15" height="15" rx="7.5" transform="rotate(-180 15.5 15.5)" stroke="#377DFF" stroke-opacity="0.2"/>
<path d="M10.2612 11.4281H5.73897C5.09518 11.4281 4.57153 10.9044 4.57153 10.2606V5.73836C4.57153 5.09457 5.09518 4.57092 5.73897 4.57092H8.0001C8.22796 4.57092 8.41355 4.75569 8.41355 4.98437C8.41355 5.21306 8.22879 5.39782 8.0001 5.39782H5.73897C5.55089 5.39782 5.39761 5.55111 5.39761 5.73919V10.2606C5.39761 10.4487 5.55089 10.602 5.73897 10.602H10.2604C10.4485 10.602 10.6018 10.4487 10.6018 10.2606V7.99949C10.6018 7.77081 10.7865 7.58604 11.0152 7.58604C11.2431 7.58604 11.4287 7.77081 11.4287 7.99949V10.2598C11.4287 10.9044 10.9042 11.4281 10.2612 11.4281Z" fill="#377DFF"/>
<path d="M7.29277 9.14235C7.18109 9.14235 7.07028 9.0996 6.98478 9.01496C6.81464 8.84482 6.81464 8.56997 6.98478 8.39982L10.6859 4.69853C10.856 4.52839 11.1309 4.52839 11.301 4.69853C11.4711 4.86868 11.4711 5.14352 11.301 5.31367L7.59989 9.01496C7.51526 9.0996 7.40358 9.14235 7.29277 9.14235Z" fill="#377DFF"/>
</svg>
