<svg width="119" height="131" viewBox="0 0 119 131" fill="none" xmlns="http://www.w3.org/2000/svg">
<path d="M106.586 29.0674L101.846 24.3274C100.045 25.2452 98.0124 25.768 95.8515 25.768C88.5556 25.768 82.6306 19.8546 82.6306 12.5471C82.6306 10.3862 83.1534 8.3531 84.0712 6.55236L81.3875 3.86868C76.2293 -1.28956 67.8529 -1.28956 62.6947 3.86868L37.4844 29.079H106.586V29.0674Z" fill="#FFAB00"/>
<path d="M58.9144 1.87114C53.8491 -1.12621 47.2154 -0.498859 42.8588 3.85776L17.6484 29.0681H31.7174L58.9144 1.87114V1.87114Z" fill="#FFF2D3"/>
<path d="M118.965 49.2244V45.5881C118.965 38.2922 113.051 32.3672 105.744 32.3672H13.2209C5.91339 32.3672 0 38.2922 0 45.5881V49.2244C7.53986 50.7579 13.2209 57.4265 13.2209 65.4194C13.2209 73.4124 7.53986 80.0809 0 81.6145V85.2508C0 92.5467 5.91339 98.4601 13.2209 98.4601H105.744C113.04 98.4601 118.965 92.5467 118.965 85.2392V81.6028C111.425 80.0693 105.744 73.4008 105.744 65.4078C105.744 57.4265 111.425 50.7579 118.965 49.2244Z" fill="#FFF2D3"/>
<path d="M60.2676 92.2911C74.4556 92.2911 85.9572 80.7896 85.9572 66.6016C85.9572 52.4137 74.4556 40.9121 60.2676 40.9121C46.0797 40.9121 34.5781 52.4137 34.5781 66.6016C34.5781 80.7896 46.0797 92.2911 60.2676 92.2911Z" fill="#FFAB00"/>
<path d="M60.2686 84.8766C70.3623 84.8766 78.545 76.694 78.545 66.6002C78.545 56.5064 70.3623 48.3239 60.2686 48.3239C50.1748 48.3239 41.9922 56.5064 41.9922 66.6002C41.9922 76.694 50.1748 84.8766 60.2686 84.8766Z" fill="white"/>
<path d="M59.3789 76.2066V73.7822C57.6539 73.6889 56.0221 73.2693 55.043 72.7098L55.7889 69.7259C56.8613 70.332 58.3532 70.8449 60.0317 70.8449C61.477 70.8449 62.4561 70.2854 62.4561 69.2597C62.4561 68.2806 61.6635 67.6745 59.7519 67.0684C57.0478 66.1359 55.1828 64.8771 55.1828 62.406C55.1828 60.1681 56.768 58.3965 59.4722 57.8836V55.4592H61.9432V57.6971C63.6683 57.7903 64.7872 58.1167 65.6265 58.5363L64.8805 61.427C64.2278 61.1472 63.0622 60.5411 61.1972 60.5411C59.5654 60.5411 59.006 61.2405 59.006 61.9864C59.006 62.8257 59.8918 63.3385 62.0365 64.1778C65.067 65.2501 66.2792 66.6488 66.2792 68.9333C66.2792 71.2179 64.694 73.1295 61.7567 73.6423V76.2532H59.3789V76.2066Z" fill="#FE7207"/>
<path d="M47.6632 68.4139C48.7447 68.4139 49.6214 67.5372 49.6214 66.4557C49.6214 65.3742 48.7447 64.4975 47.6632 64.4975C46.5818 64.4975 45.7051 65.3742 45.7051 66.4557C45.7051 67.5372 46.5818 68.4139 47.6632 68.4139Z" fill="#FE7207"/>
<path d="M73.1682 68.4139C74.2496 68.4139 75.1263 67.5372 75.1263 66.4557C75.1263 65.3742 74.2496 64.4975 73.1682 64.4975C72.0867 64.4975 71.21 65.3742 71.21 66.4557C71.21 67.5372 72.0867 68.4139 73.1682 68.4139Z" fill="#FE7207"/>
<rect x="4.42188" y="111.631" width="113" height="18" rx="4" fill="#38CB89" fill-opacity="0.14"/>
<path d="M17.7694 119.711C17.7289 119.562 17.6695 119.43 17.591 119.315C17.5125 119.199 17.4162 119.1 17.302 119.019C17.1879 118.939 17.0571 118.878 16.9096 118.837C16.7622 118.795 16.6005 118.773 16.4245 118.773C16.0701 118.773 15.7633 118.859 15.5041 119.03C15.2472 119.201 15.0486 119.451 14.9083 119.779C14.768 120.105 14.6979 120.501 14.6979 120.967C14.6979 121.436 14.7656 121.835 14.9012 122.166C15.0368 122.496 15.233 122.748 15.4898 122.922C15.7467 123.096 16.0582 123.183 16.4245 123.183C16.7479 123.183 17.0214 123.13 17.245 123.026C17.4709 122.919 17.6421 122.768 17.7587 122.572C17.8752 122.377 17.9335 122.148 17.9335 121.884L18.2617 121.923H16.4851V120.635H19.6351V121.602C19.6351 122.256 19.496 122.816 19.2177 123.282C18.9418 123.749 18.5613 124.106 18.0762 124.356C17.5934 124.606 17.038 124.731 16.4102 124.731C15.7134 124.731 15.101 124.58 14.573 124.278C14.045 123.976 13.6336 123.545 13.3387 122.986C13.0438 122.425 12.8963 121.759 12.8963 120.989C12.8963 120.389 12.9855 119.858 13.1639 119.394C13.3423 118.928 13.5908 118.533 13.9095 118.21C14.2305 117.886 14.6015 117.641 15.0225 117.475C15.4458 117.308 15.9012 117.225 16.3888 117.225C16.8121 117.225 17.2057 117.286 17.5696 117.407C17.9358 117.528 18.2593 117.699 18.5399 117.921C18.8229 118.142 19.0524 118.405 19.2284 118.709C19.4044 119.013 19.5138 119.348 19.5566 119.711H17.7694ZM20.6759 124.631V117.325H25.7701V118.759H22.4417V120.257H25.5096V121.695H22.4417V123.197H25.7701V124.631H20.6759ZM26.6369 118.759V117.325H32.812V118.759H30.5967V124.631H28.8558V118.759H26.6369ZM38.5332 124.631H35.8327V117.325H38.5296C39.274 117.325 39.915 117.471 40.4525 117.764C40.9923 118.054 41.4085 118.472 41.701 119.019C41.9936 119.564 42.1398 120.216 42.1398 120.974C42.1398 121.735 41.9936 122.389 41.701 122.936C41.4109 123.483 40.9959 123.903 40.456 124.196C39.9162 124.486 39.2752 124.631 38.5332 124.631ZM37.5986 123.125H38.4654C38.8745 123.125 39.2205 123.056 39.5035 122.919C39.7889 122.778 40.0042 122.551 40.1492 122.237C40.2967 121.921 40.3704 121.5 40.3704 120.974C40.3704 120.449 40.2967 120.03 40.1492 119.719C40.0018 119.405 39.7842 119.179 39.4964 119.041C39.211 118.9 38.859 118.83 38.4405 118.83H37.5986V123.125ZM44.3195 124.631H42.4216L44.8867 117.325H47.2376L49.7026 124.631H47.8048L46.0889 119.166H46.0318L44.3195 124.631ZM44.0662 121.756H48.0331V123.097H44.0662V121.756ZM52.2551 117.325V124.631H50.4892V117.325H52.2551ZM53.3636 124.631V117.325H55.1295V123.197H58.1689V124.631H53.3636ZM57.591 117.325H59.5637L61.1084 120.382H61.1726L62.7173 117.325H64.69L62.0181 122.191V124.631H60.2629V122.191L57.591 117.325ZM69.3544 117.325V124.631H67.5885V117.325H69.3544ZM76.6808 117.325V124.631H75.1825L72.2751 120.414H72.2288V124.631H70.4629V117.325H71.9826L74.8579 121.534H74.9186V117.325H76.6808ZM84.4229 119.972H82.6392C82.6155 119.789 82.5667 119.623 82.493 119.476C82.4192 119.329 82.3217 119.203 82.2004 119.098C82.0792 118.993 81.9353 118.914 81.7688 118.859C81.6047 118.802 81.4228 118.773 81.223 118.773C80.8686 118.773 80.563 118.86 80.3062 119.034C80.0517 119.207 79.8555 119.458 79.7176 119.786C79.582 120.115 79.5142 120.512 79.5142 120.978C79.5142 121.463 79.5832 121.87 79.7211 122.198C79.8614 122.524 80.0577 122.77 80.3097 122.936C80.5642 123.1 80.8651 123.183 81.2123 123.183C81.4073 123.183 81.5845 123.158 81.7438 123.108C81.9055 123.058 82.0471 122.985 82.1683 122.89C82.292 122.792 82.3931 122.675 82.4716 122.537C82.5524 122.396 82.6083 122.238 82.6392 122.062L84.4229 122.073C84.392 122.396 84.2981 122.715 84.1411 123.029C83.9865 123.343 83.7737 123.63 83.5025 123.889C83.2314 124.146 82.9008 124.35 82.5108 124.502C82.1232 124.655 81.6784 124.731 81.1766 124.731C80.5155 124.731 79.9233 124.586 79.4001 124.296C78.8792 124.003 78.4678 123.577 78.1658 123.018C77.8637 122.46 77.7127 121.779 77.7127 120.978C77.7127 120.174 77.8661 119.493 78.1729 118.934C78.4797 118.375 78.8947 117.95 79.4179 117.66C79.9411 117.37 80.5274 117.225 81.1766 117.225C81.619 117.225 82.028 117.287 82.4038 117.411C82.7796 117.532 83.1101 117.71 83.3955 117.946C83.6809 118.179 83.9128 118.465 84.0912 118.805C84.2695 119.145 84.3801 119.534 84.4229 119.972ZM92.3291 120.978C92.3291 121.782 92.1745 122.463 91.8653 123.022C91.5562 123.581 91.1376 124.005 90.6096 124.296C90.084 124.586 89.4942 124.731 88.8402 124.731C88.1838 124.731 87.5928 124.584 87.0672 124.292C86.5416 123.999 86.1243 123.575 85.8151 123.018C85.5083 122.46 85.3549 121.779 85.3549 120.978C85.3549 120.174 85.5083 119.493 85.8151 118.934C86.1243 118.375 86.5416 117.95 87.0672 117.66C87.5928 117.37 88.1838 117.225 88.8402 117.225C89.4942 117.225 90.084 117.37 90.6096 117.66C91.1376 117.95 91.5562 118.375 91.8653 118.934C92.1745 119.493 92.3291 120.174 92.3291 120.978ZM90.524 120.978C90.524 120.502 90.4562 120.1 90.3207 119.772C90.1875 119.444 89.9948 119.195 89.7428 119.027C89.493 118.858 89.1922 118.773 88.8402 118.773C88.4906 118.773 88.1898 118.858 87.9377 119.027C87.6856 119.195 87.4917 119.444 87.3562 119.772C87.223 120.1 87.1564 120.502 87.1564 120.978C87.1564 121.454 87.223 121.855 87.3562 122.184C87.4917 122.512 87.6856 122.76 87.9377 122.929C88.1898 123.098 88.4906 123.183 88.8402 123.183C89.1922 123.183 89.493 123.098 89.7428 122.929C89.9948 122.76 90.1875 122.512 90.3207 122.184C90.4562 121.855 90.524 121.454 90.524 120.978ZM93.3601 117.325H95.5469L97.4019 121.848H97.4875L99.3425 117.325H101.529V124.631H99.8099V120.143H99.7492L97.9941 124.584H96.8953L95.1402 120.118H95.0795V124.631H93.3601V117.325ZM102.631 124.631V117.325H107.725V118.759H104.397V120.257H107.465V121.695H104.397V123.197H107.725V124.631H102.631Z" fill="#38CB89"/>
</svg>
