<svg width="113" height="120" viewBox="0 0 113 120" fill="none" xmlns="http://www.w3.org/2000/svg">
<path d="M34.3061 75.4688C34.3061 75.4688 27.5686 73.4385 24.9668 66.7762C24.9668 66.7762 13.2363 67.7838 13.0859 53.1508C13.0859 53.1508 13.2213 51.662 16.9209 50.9702C20.6205 50.2784 23.6283 36.9387 25.5383 36.9086C25.5383 36.9086 18.0037 33.1489 18.0037 27.4942C18.0037 27.4942 24.3803 21.4034 38.0057 25.1782C38.0057 25.1782 75.9643 11.9889 89.4393 38.3674C100.132 59.2868 74.5205 84.5825 74.5205 84.5825H62.2035C62.2035 84.5825 63.948 80.8227 63.7977 77.6344C63.7977 77.6344 55.3908 80.3866 47.5705 77.7848C47.5705 77.7848 46.2621 83.3793 44.2318 84.5975H32.5014C32.5014 84.5975 34.3813 78.6571 34.3061 75.4688V75.4688Z" fill="#FFF1D3"/>
<path d="M74.5231 85.9372H62.2061C61.7398 85.9372 61.3188 85.6966 61.0781 85.3206C60.8375 84.9296 60.7924 84.4484 60.9879 84.0273C61.0029 83.9972 62.0256 81.7564 62.3565 79.4103C59.5592 80.0419 54.0549 80.8992 48.5205 79.4554C47.949 81.4105 46.7459 84.6439 44.9412 85.7417C44.7307 85.862 44.49 85.9372 44.2494 85.9372H32.5189C32.0828 85.9372 31.6918 85.7267 31.4361 85.3808C31.1805 85.0349 31.1053 84.5837 31.2406 84.1777C31.2557 84.1325 32.7295 79.4404 32.9551 76.3874C30.9549 75.5603 26.4582 73.1991 24.0971 68.1159C22.4277 68.0558 19.0139 67.5896 16.1564 65.0029C13.284 62.4011 11.8102 58.4158 11.75 53.1521V53.0167C11.8102 52.4302 12.3215 50.445 16.6828 49.648C18.0814 49.3923 20.1568 44.3993 21.2848 41.7073C22.0969 39.7523 22.7285 38.2333 23.3602 37.1956C20.9539 35.6466 16.6678 32.2027 16.6678 27.4954C16.6678 27.1195 16.8182 26.7736 17.0889 26.5179C17.3746 26.2472 24.052 20.0661 37.9781 23.7657C42.1891 22.4273 77.5609 12.1406 90.6449 37.737C101.654 59.288 76.5383 84.4634 75.4705 85.5312C75.2149 85.8019 74.869 85.9372 74.5231 85.9372V85.9372ZM64.1611 83.2452H73.9365C77.0346 80.0118 97.6381 57.4081 88.2236 38.9853C75.4555 13.9603 38.8203 26.3374 38.4443 26.4577C38.1887 26.548 37.9029 26.563 37.6473 26.4878C26.8492 23.495 21.0141 26.924 19.3898 28.112C19.9162 32.5335 26.0822 35.6767 26.1424 35.7218C26.6988 36.0075 26.9846 36.6241 26.8492 37.2257C26.7439 37.707 26.368 38.0829 25.9168 38.2183C25.4055 38.7898 24.458 41.0757 23.7512 42.745C21.9014 47.1816 19.9914 51.7835 17.149 52.2949C15.3744 52.6257 14.6225 53.137 14.4119 53.3927C14.5021 57.739 15.6752 60.9724 17.9311 63.0027C20.9238 65.7097 24.7889 65.4089 24.834 65.4089C25.4205 65.3488 25.992 65.7097 26.2025 66.2661C28.5486 72.2517 34.6244 74.1466 34.6846 74.1617C35.241 74.3271 35.632 74.8384 35.6471 75.4249C35.7072 77.7109 34.865 81.1548 34.2936 83.2302H43.7832C44.7607 82.2978 45.8135 79.3351 46.2496 77.4552C46.3398 77.0792 46.5805 76.7634 46.9113 76.5829C47.2422 76.4025 47.6332 76.3573 47.9941 76.4777C55.2881 78.899 63.3039 76.3573 63.3791 76.3273C63.7852 76.1919 64.2213 76.2521 64.5672 76.4927C64.9131 76.7333 65.1236 77.1243 65.1537 77.5454C65.2289 79.5908 64.6725 81.7413 64.1611 83.2452V83.2452Z" fill="#FE7207"/>
<path d="M60.3059 26.849C64.983 24.7887 68.2465 20.1266 68.2465 14.6975C68.2465 7.3584 62.3061 1.41797 54.967 1.41797C47.6279 1.41797 41.6875 7.3584 41.6875 14.6975C41.6875 20.1115 44.9359 24.7586 49.583 26.834" fill="#FFAB00"/>
<path d="M60.3072 28.2006C59.7959 28.2006 59.2996 27.8998 59.074 27.4035C58.7732 26.7268 59.0891 25.9297 59.7658 25.6289C64.0971 23.7189 66.9094 19.4328 66.9094 14.7105C66.9094 8.12344 61.5555 2.76953 54.9684 2.76953C48.3812 2.76953 43.0273 8.12344 43.0273 14.7105C43.0273 19.4178 45.8096 23.6889 50.1107 25.6139C50.7875 25.9146 51.1033 26.7117 50.7875 27.3885C50.4867 28.0652 49.6896 28.3811 49.0129 28.0652C43.7342 25.7191 40.3203 20.4705 40.3203 14.6955C40.3203 6.61953 46.8924 0.0625 54.9533 0.0625C63.0143 0.0625 69.5863 6.61953 69.5863 14.6955C69.5863 20.4855 66.1574 25.7492 60.8336 28.0803C60.6682 28.1555 60.4877 28.2006 60.3072 28.2006V28.2006Z" fill="#FE7207"/>
<path d="M67.0021 31.0742C66.7464 31.0742 66.5058 30.999 66.2802 30.8636C64.3251 29.6003 62.2046 28.698 60.0089 28.1566C59.2871 27.9761 58.8359 27.2542 59.0164 26.5324C59.1968 25.8105 59.9187 25.3593 60.6406 25.5398C63.1371 26.1564 65.5283 27.1791 67.739 28.6078C68.3707 29.0138 68.5511 29.841 68.1451 30.4726C67.8744 30.8636 67.4382 31.0742 67.0021 31.0742V31.0742Z" fill="#FE7207"/>
<path d="M60.3057 28.2006C60.2004 28.2006 60.0951 28.1856 59.9898 28.1555C56.7865 27.3735 53.3877 27.3735 49.8535 28.1405C49.1166 28.3059 48.4098 27.8397 48.2443 27.1178C48.0789 26.3959 48.5451 25.6741 49.267 25.5086C53.1922 24.6514 57.0121 24.6664 60.6064 25.5387C61.3283 25.7192 61.7795 26.4411 61.599 27.1629C61.4637 27.7795 60.9072 28.2006 60.3057 28.2006V28.2006Z" fill="#FE7207"/>
<path d="M41.8679 31.0738C41.4167 31.0738 40.9806 30.8482 40.7249 30.4271C40.3339 29.7955 40.5294 28.9684 41.161 28.5773C41.2964 28.4871 44.5147 26.5471 49.2821 25.4943C50.004 25.3289 50.7259 25.7951 50.8913 26.517C51.0567 27.2389 50.5905 27.9607 49.8687 28.1262C45.5374 29.0736 42.6198 30.8482 42.5897 30.8633C42.3491 31.0137 42.1085 31.0738 41.8679 31.0738V31.0738Z" fill="#FE7207"/>
<path d="M27.4297 45.1053C27.4297 45.4746 27.5024 45.8403 27.6438 46.1815C27.7851 46.5227 27.9922 46.8327 28.2534 47.0939C28.5145 47.355 28.8246 47.5622 29.1658 47.7035C29.507 47.8448 29.8727 47.9176 30.242 47.9176C30.6113 47.9176 30.977 47.8448 31.3182 47.7035C31.6594 47.5622 31.9694 47.355 32.2306 47.0939C32.4917 46.8327 32.6989 46.5227 32.8402 46.1815C32.9816 45.8403 33.0543 45.4746 33.0543 45.1053C33.0543 44.736 32.9816 44.3703 32.8402 44.0291C32.6989 43.6878 32.4917 43.3778 32.2306 43.1167C31.9694 42.8555 31.6594 42.6484 31.3182 42.507C30.977 42.3657 30.6113 42.293 30.242 42.293C29.8727 42.293 29.507 42.3657 29.1658 42.507C28.8246 42.6484 28.5145 42.8555 28.2534 43.1167C27.9922 43.3778 27.7851 43.6878 27.6438 44.0291C27.5024 44.3703 27.4297 44.736 27.4297 45.1053Z" fill="#FE7207"/>
<path d="M102.278 55.4822C100.173 55.4822 97.9923 54.4445 96.7591 52.7C95.3304 50.6998 95.4357 48.2184 97.0148 45.8572C95.2552 45.9475 93.631 46.2182 92.7136 46.4287C91.9918 46.5941 91.2699 46.143 91.1044 45.4061C90.939 44.6842 91.3902 43.9623 92.1271 43.7969C92.6835 43.6766 95.8117 42.9998 99.1203 43.1352C101.918 39.8115 103.978 38.8941 108.73 38.1723C109.467 38.067 110.159 38.5633 110.264 39.3002C110.369 40.0371 109.873 40.7289 109.136 40.8342C105.813 41.3455 104.143 41.8719 102.369 43.5713C103.542 43.8721 104.64 44.3533 105.527 45.0752C106.956 46.2332 107.677 47.9025 107.647 49.9027C107.602 52.5797 106.294 54.5197 104.053 55.2115C103.467 55.407 102.88 55.4822 102.278 55.4822V55.4822ZM100.308 45.9475C100.038 46.3084 99.7369 46.6844 99.4361 47.1055C98.654 48.1582 97.9472 49.7223 98.9548 51.1359C99.8421 52.3992 101.812 53.076 103.226 52.6398C104.324 52.2939 104.895 51.3615 104.925 49.8576C104.94 48.6695 104.594 47.8123 103.812 47.1656C102.955 46.4889 101.692 46.1129 100.308 45.9475Z" fill="#FE7207"/>
<path d="M54.9997 6.12891V12.6283L50.3047 14.0897L54.9997 6.12891ZM54.9997 6.12891V12.6283L59.6947 14.0897L54.9997 6.12891ZM54.9997 21.8711V17.3487L50.3047 14.7595L54.9997 21.8711ZM54.9997 21.8711V17.3487L59.6947 14.7595L54.9997 21.8711Z" fill="white"/>
<path d="M50.3047 14.09L54.9997 11.9082V16.3961L50.3047 14.09ZM59.6947 14.09L54.9997 11.9082V16.3961L59.6947 14.09Z" fill="white"/>
<rect y="101" width="113" height="18" rx="4" fill="#38CB89" fill-opacity="0.14"/>
<path d="M7.13329 114H5.23545L7.7005 106.694H10.0514L12.5164 114H10.6186L8.9027 108.535H8.84562L7.13329 114ZM6.88 111.125H10.8469V112.466H6.88V111.125ZM19.5914 109.341H17.8077C17.784 109.158 17.7352 108.993 17.6615 108.845C17.5877 108.698 17.4902 108.572 17.369 108.467C17.2477 108.362 17.1038 108.283 16.9373 108.228C16.7732 108.171 16.5913 108.142 16.3915 108.142C16.0371 108.142 15.7315 108.229 15.4747 108.403C15.2202 108.576 15.024 108.827 14.8861 109.156C14.7505 109.484 14.6827 109.881 14.6827 110.347C14.6827 110.832 14.7517 111.239 14.8896 111.567C15.0299 111.893 15.2262 112.139 15.4782 112.306C15.7327 112.47 16.0336 112.552 16.3808 112.552C16.5758 112.552 16.753 112.527 16.9123 112.477C17.074 112.427 17.2156 112.354 17.3368 112.259C17.4605 112.162 17.5616 112.044 17.6401 111.906C17.7209 111.766 17.7768 111.607 17.8077 111.431L19.5914 111.442C19.5605 111.766 19.4666 112.084 19.3096 112.398C19.155 112.712 18.9422 112.999 18.671 113.258C18.3999 113.515 18.0693 113.719 17.6793 113.872C17.2917 114.024 16.8469 114.1 16.3451 114.1C15.684 114.1 15.0918 113.955 14.5686 113.665C14.0477 113.372 13.6363 112.946 13.3343 112.388C13.0322 111.829 12.8812 111.148 12.8812 110.347C12.8812 109.543 13.0346 108.862 13.3414 108.303C13.6482 107.744 14.0632 107.32 14.5864 107.029C15.1096 106.739 15.6959 106.594 16.3451 106.594C16.7875 106.594 17.1965 106.656 17.5723 106.78C17.9481 106.901 18.2786 107.079 18.564 107.315C18.8494 107.548 19.0813 107.834 19.2597 108.174C19.438 108.515 19.5486 108.903 19.5914 109.341ZM27.2336 109.341H25.4499C25.4261 109.158 25.3774 108.993 25.3037 108.845C25.2299 108.698 25.1324 108.572 25.0111 108.467C24.8898 108.362 24.746 108.283 24.5795 108.228C24.4154 108.171 24.2335 108.142 24.0337 108.142C23.6793 108.142 23.3737 108.229 23.1169 108.403C22.8624 108.576 22.6662 108.827 22.5283 109.156C22.3927 109.484 22.3249 109.881 22.3249 110.347C22.3249 110.832 22.3939 111.239 22.5318 111.567C22.6721 111.893 22.8683 112.139 23.1204 112.306C23.3749 112.47 23.6758 112.552 24.023 112.552C24.218 112.552 24.3952 112.527 24.5545 112.477C24.7162 112.427 24.8577 112.354 24.979 112.259C25.1027 112.162 25.2038 112.044 25.2823 111.906C25.3631 111.766 25.419 111.607 25.4499 111.431L27.2336 111.442C27.2027 111.766 27.1088 112.084 26.9518 112.398C26.7972 112.712 26.5843 112.999 26.3132 113.258C26.0421 113.515 25.7115 113.719 25.3215 113.872C24.9338 114.024 24.4891 114.1 23.9873 114.1C23.3262 114.1 22.734 113.955 22.2108 113.665C21.6899 113.372 21.2785 112.946 20.9764 112.388C20.6744 111.829 20.5234 111.148 20.5234 110.347C20.5234 109.543 20.6768 108.862 20.9836 108.303C21.2904 107.744 21.7054 107.32 22.2286 107.029C22.7518 106.739 23.338 106.594 23.9873 106.594C24.4297 106.594 24.8387 106.656 25.2145 106.78C25.5902 106.901 25.9208 107.079 26.2062 107.315C26.4916 107.548 26.7235 107.834 26.9018 108.174C27.0802 108.515 27.1908 108.903 27.2336 109.341ZM35.1398 110.347C35.1398 111.151 34.9852 111.832 34.676 112.391C34.3669 112.95 33.9483 113.375 33.4203 113.665C32.8947 113.955 32.3049 114.1 31.6509 114.1C30.9945 114.1 30.4035 113.954 29.8779 113.661C29.3523 113.369 28.9349 112.944 28.6258 112.388C28.319 111.829 28.1656 111.148 28.1656 110.347C28.1656 109.543 28.319 108.862 28.6258 108.303C28.9349 107.744 29.3523 107.32 29.8779 107.029C30.4035 106.739 30.9945 106.594 31.6509 106.594C32.3049 106.594 32.8947 106.739 33.4203 107.029C33.9483 107.32 34.3669 107.744 34.676 108.303C34.9852 108.862 35.1398 109.543 35.1398 110.347ZM33.3347 110.347C33.3347 109.871 33.2669 109.469 33.1314 109.141C32.9982 108.813 32.8055 108.565 32.5534 108.396C32.3037 108.227 32.0029 108.142 31.6509 108.142C31.3013 108.142 31.0005 108.227 30.7484 108.396C30.4963 108.565 30.3024 108.813 30.1669 109.141C30.0337 109.469 29.9671 109.871 29.9671 110.347C29.9671 110.823 30.0337 111.225 30.1669 111.553C30.3024 111.881 30.4963 112.13 30.7484 112.298C31.0005 112.467 31.3013 112.552 31.6509 112.552C32.0029 112.552 32.3037 112.467 32.5534 112.298C32.8055 112.13 32.9982 111.881 33.1314 111.553C33.2669 111.225 33.3347 110.823 33.3347 110.347ZM40.5907 106.694H42.353V111.407C42.353 111.951 42.2234 112.426 41.9642 112.83C41.7049 113.232 41.3434 113.543 40.8797 113.765C40.4159 113.983 39.8772 114.093 39.2637 114.093C38.6429 114.093 38.1007 113.983 37.6369 113.765C37.1732 113.543 36.8129 113.232 36.556 112.83C36.2992 112.426 36.1708 111.951 36.1708 111.407V106.694H37.9366V111.253C37.9366 111.505 37.9913 111.73 38.1007 111.927C38.2125 112.125 38.3683 112.279 38.568 112.391C38.7678 112.503 38.9997 112.559 39.2637 112.559C39.5276 112.559 39.7583 112.503 39.9557 112.391C40.1555 112.279 40.3113 112.125 40.4231 111.927C40.5348 111.73 40.5907 111.505 40.5907 111.253V106.694ZM49.6777 106.694V114H48.1794L45.272 109.783H45.2256V114H43.4598V106.694H44.9795L47.8548 110.904H47.9154V106.694H49.6777ZM50.549 108.128V106.694H56.7241V108.128H54.5088V114H52.7679V108.128H50.549ZM59.7448 114V106.694H62.7913C63.3383 106.694 63.7961 106.771 64.1648 106.926C64.5358 107.08 64.814 107.297 64.9995 107.575C65.1874 107.853 65.2814 108.176 65.2814 108.542C65.2814 108.82 65.2231 109.069 65.1066 109.288C64.99 109.504 64.8295 109.683 64.625 109.826C64.4204 109.969 64.1838 110.069 63.9151 110.126V110.197C64.21 110.211 64.4823 110.291 64.732 110.436C64.9841 110.581 65.1862 110.783 65.3384 111.043C65.4906 111.3 65.5667 111.604 65.5667 111.956C65.5667 112.348 65.4669 112.699 65.2671 113.008C65.0673 113.315 64.7784 113.558 64.4002 113.736C64.0221 113.912 63.5631 114 63.0232 114H59.7448ZM61.5106 112.577H62.6023C62.9852 112.577 63.267 112.504 63.4477 112.359C63.6309 112.214 63.7224 112.012 63.7224 111.753C63.7224 111.565 63.6784 111.403 63.5904 111.267C63.5024 111.129 63.3776 111.024 63.2158 110.95C63.0541 110.874 62.8603 110.836 62.6344 110.836H61.5106V112.577ZM61.5106 109.698H62.4881C62.6807 109.698 62.852 109.666 63.0018 109.601C63.1516 109.537 63.2682 109.444 63.3514 109.323C63.437 109.202 63.4798 109.056 63.4798 108.884C63.4798 108.639 63.393 108.447 63.2194 108.306C63.0458 108.166 62.8115 108.096 62.5166 108.096H61.5106V109.698ZM67.9961 114H66.0983L68.5633 106.694H70.9142L73.3793 114H71.4814L69.7655 108.535H69.7085L67.9961 114ZM67.7428 111.125H71.7097V112.466H67.7428V111.125ZM74.1659 114V106.694H75.9317V112.566H78.9711V114H74.1659ZM81.5637 114H79.6659L82.1309 106.694H84.4818L86.9469 114H85.049L83.3331 108.535H83.276L81.5637 114ZM81.3104 111.125H85.2773V112.466H81.3104V111.125ZM93.9514 106.694V114H92.4531L89.5457 109.783H89.4993V114H87.7335V106.694H89.2532L92.1285 110.904H92.1891V106.694H93.9514ZM101.693 109.341H99.9098C99.886 109.158 99.8372 108.993 99.7635 108.845C99.6898 108.698 99.5923 108.572 99.471 108.467C99.3497 108.362 99.2058 108.283 99.0393 108.228C98.8752 108.171 98.6933 108.142 98.4935 108.142C98.1392 108.142 97.8336 108.229 97.5767 108.403C97.3222 108.576 97.126 108.827 96.9881 109.156C96.8525 109.484 96.7848 109.881 96.7848 110.347C96.7848 110.832 96.8537 111.239 96.9917 111.567C97.132 111.893 97.3282 112.139 97.5803 112.306C97.8348 112.47 98.1356 112.552 98.4828 112.552C98.6778 112.552 98.855 112.527 99.0144 112.477C99.1761 112.427 99.3176 112.354 99.4389 112.259C99.5626 112.162 99.6636 112.044 99.7421 111.906C99.823 111.766 99.8789 111.607 99.9098 111.431L101.693 111.442C101.663 111.766 101.569 112.084 101.412 112.398C101.257 112.712 101.044 112.999 100.773 113.258C100.502 113.515 100.171 113.719 99.7813 113.872C99.3937 114.024 98.949 114.1 98.4472 114.1C97.786 114.1 97.1938 113.955 96.6706 113.665C96.1498 113.372 95.7383 112.946 95.4363 112.388C95.1343 111.829 94.9832 111.148 94.9832 110.347C94.9832 109.543 95.1366 108.862 95.4434 108.303C95.7502 107.744 96.1652 107.32 96.6884 107.029C97.2117 106.739 97.7979 106.594 98.4472 106.594C98.8895 106.594 99.2986 106.656 99.6743 106.78C100.05 106.901 100.381 107.079 100.666 107.315C100.951 107.548 101.183 107.834 101.362 108.174C101.54 108.515 101.651 108.903 101.693 109.341ZM102.704 114V106.694H107.798V108.128H104.47V109.626H107.538V111.064H104.47V112.566H107.798V114H102.704Z" fill="#38CB89"/>
</svg>
