<svg width="12" height="12" viewBox="0 0 12 12" fill="none" xmlns="http://www.w3.org/2000/svg">
<path d="M6 12C2.68636 12 0 9.31364 0 6C0 2.68636 2.68636 0 6 0C9.31364 0 12 2.68636 12 6C12 9.31364 9.31364 12 6 12ZM6 10.9091C8.71091 10.9091 10.9091 8.71091 10.9091 6C10.9091 3.28909 8.71091 1.09091 6 1.09091C3.28882 1.09091 1.09091 3.28909 1.09091 6C1.09091 8.71091 3.28882 10.9091 6 10.9091ZM6 3.71264C5.8553 3.71264 5.71653 3.65515 5.61421 3.55284C5.51189 3.45052 5.45441 3.31175 5.45441 3.16705C5.45441 3.02235 5.51189 2.88357 5.61421 2.78125C5.71653 2.67894 5.8553 2.62145 6 2.62145C6.1447 2.62145 6.28347 2.67894 6.38579 2.78125C6.48811 2.88357 6.54559 3.02235 6.54559 3.16705C6.54559 3.31175 6.48811 3.45052 6.38579 3.55284C6.28347 3.65515 6.1447 3.71264 6 3.71264ZM6.00736 9.31909C5.86976 9.31906 5.73724 9.26702 5.63639 9.1734C5.53554 9.07978 5.4738 8.9515 5.46355 8.81427L5.46191 8.77336V4.95518C5.46135 4.81367 5.51581 4.67748 5.6138 4.57537C5.71178 4.47326 5.84561 4.41323 5.98703 4.40796C6.12845 4.40268 6.26638 4.45258 6.3717 4.5471C6.47701 4.64163 6.54147 4.77338 6.55145 4.91455L6.55282 4.95545V8.77364C6.55282 8.9183 6.49535 9.05704 6.39306 9.15933C6.29077 9.26162 6.15203 9.31909 6.00736 9.31909Z" fill="#3B3B3B"/>
</svg>
