<svg width="14" height="14" viewBox="0 0 14 14" fill="none" xmlns="http://www.w3.org/2000/svg">
<path d="M6.9987 13.4168C3.45495 13.4168 0.582031 10.5439 0.582031 7.00016C0.582031 3.45641 3.45495 0.583496 6.9987 0.583496C10.5425 0.583496 13.4154 3.45641 13.4154 7.00016C13.4154 10.5439 10.5425 13.4168 6.9987 13.4168ZM6.9987 12.2502C9.89787 12.2502 12.2487 9.89933 12.2487 7.00016C12.2487 4.101 9.89787 1.75016 6.9987 1.75016C4.09924 1.75016 1.7487 4.101 1.7487 7.00016C1.7487 9.89933 4.09924 12.2502 6.9987 12.2502ZM6.9987 4.55396C6.84395 4.55396 6.69554 4.49248 6.58612 4.38306C6.47669 4.27363 6.41522 4.12522 6.41522 3.97048C6.41522 3.81573 6.47669 3.66732 6.58612 3.55789C6.69554 3.44847 6.84395 3.387 6.9987 3.387C7.15345 3.387 7.30186 3.44847 7.41128 3.55789C7.52071 3.66732 7.58218 3.81573 7.58218 3.97048C7.58218 4.12522 7.52071 4.27363 7.41128 4.38306C7.30186 4.49248 7.15345 4.55396 6.9987 4.55396ZM7.00658 10.5497C6.85941 10.5497 6.7177 10.4941 6.60984 10.3939C6.50198 10.2938 6.43596 10.1566 6.42499 10.0099L6.42324 9.96612V5.88279C6.42264 5.73145 6.48089 5.5858 6.58568 5.4766C6.69047 5.3674 6.83359 5.3032 6.98483 5.29756C7.13607 5.29192 7.28358 5.34528 7.39621 5.44637C7.50884 5.54746 7.57777 5.68836 7.58845 5.83933L7.58991 5.88308V9.96642C7.58991 10.1211 7.52845 10.2695 7.41905 10.3789C7.30966 10.4883 7.16128 10.5497 7.00658 10.5497Z" fill="white"/>
</svg>
