<svg width="9" height="12" viewBox="0 0 9 12" fill="none" xmlns="http://www.w3.org/2000/svg">
<path fill-rule="evenodd" clip-rule="evenodd" d="M3.70452 0.329502C4.14384 -0.109834 4.85619 -0.109834 5.2955 0.329502L8.67051 3.70453C9.10983 4.14384 9.10983 4.85619 8.67051 5.29551C8.2312 5.73482 7.51885 5.73482 7.07953 5.29551L4.50001 2.71598L1.9205 5.29551C1.48116 5.73482 0.76885 5.73482 0.329502 5.29551C-0.109834 4.85619 -0.109834 4.14384 0.329502 3.70453L3.70452 0.329502Z" fill="#999999"/>
<path fill-rule="evenodd" clip-rule="evenodd" d="M3.70452 6.3295C4.14384 5.89017 4.85619 5.89017 5.2955 6.3295L8.67051 9.70453C9.10983 10.1438 9.10983 10.8562 8.67051 11.2955C8.2312 11.7348 7.51885 11.7348 7.07953 11.2955L4.50001 8.71598L1.9205 11.2955C1.48116 11.7348 0.76885 11.7348 0.329502 11.2955C-0.109834 10.8562 -0.109834 10.1438 0.329502 9.70453L3.70452 6.3295Z" fill="#999999"/>
</svg>
