<svg width="10" height="11" viewBox="0 0 10 11" fill="none" xmlns="http://www.w3.org/2000/svg">
<path d="M5 10.5835C2.23864 10.5835 0 8.34486 0 5.5835C0 2.82213 2.23864 0.583496 5 0.583496C7.76136 0.583496 10 2.82213 10 5.5835C10 8.34486 7.76136 10.5835 5 10.5835ZM5 9.67441C7.25909 9.67441 9.09091 7.84259 9.09091 5.5835C9.09091 3.32441 7.25909 1.49259 5 1.49259C2.74068 1.49259 0.909091 3.32441 0.909091 5.5835C0.909091 7.84259 2.74068 9.67441 5 9.67441ZM5 3.67736C4.87942 3.67736 4.76377 3.62946 4.67851 3.54419C4.59324 3.45893 4.54534 3.34328 4.54534 3.2227C4.54534 3.10212 4.59324 2.98647 4.67851 2.90121C4.76377 2.81594 4.87942 2.76804 5 2.76804C5.12058 2.76804 5.23623 2.81594 5.32149 2.90121C5.40676 2.98647 5.45466 3.10212 5.45466 3.2227C5.45466 3.34328 5.40676 3.45893 5.32149 3.54419C5.23623 3.62946 5.12058 3.67736 5 3.67736ZM5.00614 8.34941C4.89146 8.34938 4.78104 8.30601 4.69699 8.228C4.61295 8.14998 4.5615 8.04308 4.55296 7.92872L4.55159 7.89463V4.71281C4.55113 4.59489 4.59651 4.48139 4.67816 4.3963C4.75982 4.31121 4.87134 4.26119 4.98919 4.25679C5.10704 4.2524 5.22198 4.29398 5.30975 4.37275C5.39751 4.45152 5.45122 4.56132 5.45955 4.67895L5.46068 4.71304V7.89486C5.46068 8.01541 5.41279 8.13103 5.32755 8.21627C5.24231 8.30152 5.12669 8.34941 5.00614 8.34941Z" fill="#C8CDD5"/>
</svg>
