<svg width="34" height="18" viewBox="0 0 34 18" fill="none" xmlns="http://www.w3.org/2000/svg">
<path d="M32.7474 0.346646C32.2904 -0.11034 31.5483 -0.11034 31.0913 0.346646L16.1748 15.2593C15.7178 15.7162 15.7178 16.4584 16.1748 16.9153C16.6318 17.3723 17.3739 17.3723 17.8309 16.9153L32.7435 2.00274C33.2044 1.54575 33.2044 0.803633 32.7474 0.346646Z" fill="white"/>
<path d="M17.8685 15.2632L2.94805 0.34274C2.49106 -0.114247 1.74895 -0.114247 1.29196 0.34274C0.834972 0.799727 0.834972 1.54184 1.29196 1.99883L16.2124 16.9192C16.6694 17.3762 17.4115 17.3762 17.8685 16.9192C18.3255 16.4623 18.3255 15.7201 17.8685 15.2632Z" fill="white"/>
</svg>
