<svg width="20" height="20" viewBox="0 0 20 20" fill="none" xmlns="http://www.w3.org/2000/svg">
<rect x="20" y="20" width="20" height="20" rx="10" transform="rotate(-180 20 20)" fill="#377DFF" fill-opacity="0.1"/>
<rect x="19.5" y="19.5" width="19" height="19" rx="9.5" transform="rotate(-180 19.5 19.5)" stroke="#377DFF" stroke-opacity="0.2"/>
<path d="M12.827 14.2857H7.17414C6.3694 14.2857 5.71484 13.6312 5.71484 12.8264V7.17359C5.71484 6.36885 6.3694 5.71429 7.17414 5.71429H10.0006C10.2854 5.71429 10.5174 5.94525 10.5174 6.23111C10.5174 6.51696 10.2864 6.74792 10.0006 6.74792H7.17414C6.93904 6.74792 6.74743 6.93952 6.74743 7.17463V12.8264C6.74743 13.0615 6.93904 13.2531 7.17414 13.2531H12.8259C13.061 13.2531 13.2526 13.0615 13.2526 12.8264V10C13.2526 9.71416 13.4836 9.4832 13.7695 9.4832C14.0543 9.4832 14.2863 9.71416 14.2863 10V12.8254C14.2863 13.6312 13.6307 14.2857 12.827 14.2857Z" fill="#377DFF"/>
<path d="M9.1148 11.4286C8.9752 11.4286 8.8367 11.3751 8.72982 11.2693C8.51714 11.0567 8.51714 10.7131 8.72982 10.5004L13.3562 5.8738C13.5689 5.66112 13.9124 5.66112 14.1251 5.8738C14.3378 6.08649 14.3378 6.43005 14.1251 6.64273L9.4987 11.2693C9.39291 11.3751 9.25331 11.4286 9.1148 11.4286Z" fill="#377DFF"/>
</svg>
